<svg xmlns="http://www.w3.org/2000/svg" xmlns:xlink="http://www.w3.org/1999/xlink" width="108.914" height="108.914" viewBox="0 0 108.914 108.914">
  <defs>
    <filter id="Trazado_874925" x="0" y="0" width="108.914" height="108.914" filterUnits="userSpaceOnUse">
      <feOffset dy="3" input="SourceAlpha"/>
      <feGaussianBlur stdDeviation="3" result="blur"/>
      <feFlood flood-opacity="0.161"/>
      <feComposite operator="in" in2="blur"/>
      <feComposite in="SourceGraphic"/>
    </filter>
  </defs>
  <g id="Grupo_1110019" data-name="Grupo 1110019" transform="translate(-818.384 -1946.211)">
    <g id="Grupo_1109131" data-name="Grupo 1109131">
      <g transform="matrix(1, 0, 0, 1, 818.38, 1946.21)" filter="url(#Trazado_874925)">
        <g id="Trazado_874925-2" data-name="Trazado 874925" transform="translate(9 6)" fill="#d6deec" opacity="0.859">
          <path d="M 45.45676803588867 89.41407012939453 C 39.52198028564453 89.41407012939453 33.76551818847656 88.25206756591797 28.34726715087891 85.96034240722656 C 23.11311721801758 83.74648284912109 18.41204261779785 80.57682800292969 14.37464332580566 76.5394287109375 C 10.33724308013916 72.50202941894531 7.167593002319336 67.80095672607422 4.953730583190918 62.56679534912109 C 2.662005424499512 57.14855575561523 1.500005483627319 51.39208221435547 1.500005483627319 45.45729446411133 C 1.500005483627319 39.52198028564453 2.662005424499512 33.76551818847656 4.953730583190918 28.34726905822754 C 7.167593002319336 23.11310577392578 10.33724308013916 18.41203117370605 14.37464332580566 14.37464332580566 C 18.41204261779785 10.33724403381348 23.11311721801758 7.167593955993652 28.34726715087891 4.953731060028076 C 33.76551818847656 2.662006139755249 39.52198028564453 1.500006198883057 45.45676803588867 1.500006198883057 C 51.39155578613281 1.500006198883057 57.14802932739258 2.662006139755249 62.56626892089844 4.953731060028076 C 67.80043029785156 7.167593955993652 72.50150299072266 10.33724403381348 76.53890228271484 14.37464332580566 C 80.57630920410156 18.41203117370605 83.74595642089844 23.11310577392578 85.95981597900391 28.34726905822754 C 88.25154113769531 33.76551818847656 89.41354370117188 39.52198028564453 89.41354370117188 45.45676803588867 C 89.41354370117188 51.39208221435547 88.25154113769531 57.14855575561523 85.95981597900391 62.56679534912109 C 83.74595642089844 67.80095672607422 80.57630920410156 72.50202941894531 76.53890228271484 76.5394287109375 C 72.50150299072266 80.57682800292969 67.80043029785156 83.74648284912109 62.56626892089844 85.96034240722656 C 57.14802932739258 88.25206756591797 51.39155578613281 89.41407012939453 45.45676803588867 89.41407012939453 Z" stroke="none"/>
          <path d="M 45.45676803588867 3 C 39.72381210327148 3 34.1639404296875 4.12213134765625 28.93159484863281 6.335227966308594 C 23.87622833251953 8.473472595214844 19.33542633056641 11.53517150878906 15.43529510498047 15.435302734375 C 11.53517150878906 19.33543395996094 8.473464965820312 23.87622833251953 6.335227966308594 28.93160247802734 C 4.122123718261719 34.16394424438477 3 39.72381591796875 3 45.4572868347168 C 3 51.19024658203125 4.122123718261719 56.75011825561523 6.335227966308594 61.98246002197266 C 8.473464965820312 67.03782653808594 11.53517150878906 71.57862854003906 15.43529510498047 75.478759765625 C 19.33542633056641 79.37889099121094 23.87622833251953 82.44058990478516 28.93159484863281 84.57883453369141 C 34.1639404296875 86.79193115234375 39.72381210327148 87.9140625 45.45676803588867 87.9140625 C 51.18972396850586 87.9140625 56.74959564208984 86.79193115234375 61.98194122314453 84.57883453369141 C 67.03730773925781 82.44058990478516 71.57810974121094 79.37889099121094 75.47824096679688 75.478759765625 C 79.37837219238281 71.57862854003906 82.44007110595703 67.03782653808594 84.57830810546875 61.98246002197266 C 86.79141235351562 56.75011825561523 87.91353607177734 51.19024658203125 87.91353607177734 45.4567756652832 C 87.91353607177734 39.72381591796875 86.79141235351562 34.16394424438477 84.57830810546875 28.93160247802734 C 82.44007110595703 23.87622833251953 79.37837219238281 19.33543395996094 75.47824096679688 15.435302734375 C 71.57810974121094 11.53517150878906 67.03730773925781 8.473472595214844 61.98194122314453 6.335227966308594 C 56.74959564208984 4.12213134765625 51.18972396850586 3 45.45676803588867 3 M 45.45676803588867 0 C 70.56185150146484 0 90.91353607177734 20.35169219970703 90.91353607177734 45.4567756652832 L 90.91353607177734 45.4572868347168 C 90.91353607177734 70.5623779296875 70.56185150146484 90.9140625 45.45676803588867 90.9140625 C 20.3516845703125 90.9140625 0 70.5623779296875 0 45.4572868347168 L 0 45.4567756652832 C 0 20.35169219970703 20.3516845703125 0 45.45676803588867 0 Z" stroke="none" fill="#fff"/>
        </g>
      </g>
      <g id="Grupo_1109130" data-name="Grupo 1109130">
        <g id="Trazado_874923" data-name="Trazado 874923" transform="translate(827.384 1952.211)" fill="none">
          <path d="M45.457,0A45.457,45.457,0,0,1,90.914,45.457h0A45.457,45.457,0,0,1,0,45.457H0A45.457,45.457,0,0,1,45.457,0Z" stroke="none"/>
          <path d="M 45.45676803588867 3 C 39.72381210327148 3 34.1639404296875 4.12213134765625 28.93159484863281 6.335227966308594 C 23.87622833251953 8.473472595214844 19.33542633056641 11.53517150878906 15.43529510498047 15.435302734375 C 11.53517150878906 19.33543395996094 8.473464965820312 23.87622833251953 6.335227966308594 28.93160247802734 C 4.122123718261719 34.16394424438477 3 39.72381591796875 3 45.4572868347168 C 3 51.19024658203125 4.122123718261719 56.75011825561523 6.335227966308594 61.98246002197266 C 8.473464965820312 67.03782653808594 11.53517150878906 71.57862854003906 15.43529510498047 75.478759765625 C 19.33542633056641 79.37889099121094 23.87622833251953 82.44058990478516 28.93159484863281 84.57883453369141 C 34.1639404296875 86.79193115234375 39.72381210327148 87.9140625 45.45676803588867 87.9140625 C 51.18972396850586 87.9140625 56.74959564208984 86.79193115234375 61.98194122314453 84.57883453369141 C 67.03730773925781 82.44058990478516 71.57810974121094 79.37889099121094 75.47824096679688 75.478759765625 C 79.37837219238281 71.57862854003906 82.44007110595703 67.03782653808594 84.57830810546875 61.98246002197266 C 86.79141235351562 56.75011825561523 87.91353607177734 51.19024658203125 87.91353607177734 45.4567756652832 C 87.91353607177734 39.72381591796875 86.79141235351562 34.16394424438477 84.57830810546875 28.93160247802734 C 82.44007110595703 23.87622833251953 79.37837219238281 19.33543395996094 75.47824096679688 15.435302734375 C 71.57810974121094 11.53517150878906 67.03730773925781 8.473472595214844 61.98194122314453 6.335227966308594 C 56.74959564208984 4.12213134765625 51.18972396850586 3 45.45676803588867 3 M 45.45676803588867 0 C 70.56185150146484 0 90.91353607177734 20.35169219970703 90.91353607177734 45.4567756652832 L 90.91353607177734 45.4572868347168 C 90.91353607177734 70.5623779296875 70.56185150146484 90.9140625 45.45676803588867 90.9140625 C 20.3516845703125 90.9140625 0 70.5623779296875 0 45.4572868347168 L 0 45.4567756652832 C 0 20.35169219970703 20.3516845703125 0 45.45676803588867 0 Z" stroke="none" fill="#fff"/>
        </g>
      </g>
    </g>
    <g id="Creative_Process" data-name="Creative Process" transform="translate(842.385 1967.227)">
      <path id="Trazado_903273" data-name="Trazado 903273" d="M60.643,9.623,9.883,60.383,1,51.5,51.76.74Z" transform="translate(-0.366 -0.285)" fill="#ffb942"/>
      <path id="Trazado_903274" data-name="Trazado 903274" d="M63.855,12.865,13.1,63.625,9.79,60.37,60.55,9.61Z" transform="translate(-3.579 -3.527)" fill="#ff8142"/>
      <path id="Trazado_903275" data-name="Trazado 903275" d="M25.019,11.86,62.486,49.333l1.9,9.93-9.936-1.891L16.98,19.9Z" transform="translate(-6.207 -4.35)" fill="#ffebc0"/>
      <path id="Trazado_903276" data-name="Trazado 903276" d="M64.383,62.527l-9.936-1.891L16.98,23.163l2.373-2.373L56.826,58.257l7,1.339Z" transform="translate(-6.207 -7.614)" fill="#ffc88e"/>
      <path id="Trazado_903277" data-name="Trazado 903277" d="M62.081,48.929l-7.246.793c-.127,1.167,0,0-.793,7.252L17,19.914l4.441-4.441L25.007,11.9Z" transform="translate(-6.214 -4.364)" fill="#ffb942"/>
      <path id="Trazado_903278" data-name="Trazado 903278" d="M54.518,55.872l-.476,4.334L17,23.145l2.4-2.4Z" transform="translate(-6.214 -7.595)" fill="#ff8142"/>
      <path id="Trazado_903279" data-name="Trazado 903279" d="M47.114,48.864h1a2.1,2.1,0,0,1,1.821,3.172L28.06,30.127a13.566,13.566,0,0,1,6.58-9.517l18.6,18.648A13.591,13.591,0,0,1,49.379,43.5a2.468,2.468,0,0,0-1.053,1.992v2.17a1.2,1.2,0,0,1-1.212,1.2Z" transform="translate(-10.256 -7.548)" fill="#ff8142"/>
      <path id="Trazado_903280" data-name="Trazado 903280" d="M37.02,71.89l-1.44,1.44A2.094,2.094,0,0,1,37.02,71.89Z" transform="translate(-13.005 -26.291)" fill="#ffb942"/>
      <path id="Trazado_903281" data-name="Trazado 903281" d="M56.208,32.5,35.523,53.189a2.1,2.1,0,0,1,.444-4.15h1a1.2,1.2,0,0,1-1.193-1.2V45.721a2.538,2.538,0,0,0-1.041-2.05,13.623,13.623,0,0,1-3.61-3.807L49.907,21.09A13.616,13.616,0,0,1,56.208,32.5Z" transform="translate(-11.375 -7.723)" fill="#ff8142"/>
      <path id="Trazado_903282" data-name="Trazado 903282" d="M81.15,81.442l6.688,1.275L86.562,76.03Z" transform="translate(-29.661 -27.804)" fill="#2f3142"/>
      <path id="Trazado_903283" data-name="Trazado 903283" d="M0,0H4.137V11.37H0Z" transform="translate(10.774 15.547) rotate(-135)" fill="#b9c7eb"/>
      <path id="Trazado_903284" data-name="Trazado 903284" d="M0,0H4.137V3.356H0Z" transform="translate(10.781 15.553) rotate(-135)" fill="#919feb"/>
      <path id="Trazado_903285" data-name="Trazado 903285" d="M0,0H4.137V1.269H0Z" transform="translate(14.346 11.981) rotate(-135)" fill="#919feb"/>
      <path id="Trazado_903286" data-name="Trazado 903286" d="M0,0H4.137V2.291H0Z" transform="translate(16.422 9.914) rotate(-135)" fill="#fff"/>
      <path id="Trazado_903287" data-name="Trazado 903287" d="M0,0H4.289V2.291H0Z" transform="translate(19.456 12.945) rotate(-135)" fill="#ffdc51"/>
      <path id="Trazado_903288" data-name="Trazado 903288" d="M18.577,5.443c-6.783,6.821-5.006,5.025-8.007,8.039l-2.2-2.189a3.242,3.242,0,0,1,0-4.581l3.458-3.458a3.242,3.242,0,0,1,4.581,0Z" transform="translate(-2.715 -0.858)" fill="#c81363"/>
      <path id="Trazado_903289" data-name="Trazado 903289" d="M19.929,5.443l-5.666,5.666L12.074,8.92a3.242,3.242,0,0,1,0-4.581l1.11-1.085a3.242,3.242,0,0,1,4.581,0Z" transform="translate(-4.067 -0.858)" fill="#ff2c63"/>
      <path id="Trazado_903290" data-name="Trazado 903290" d="M57.7,51.677l-.812.089-.089.806L22.61,18.385l.882-.895c.076,0-.374-.393,34.206,34.187Z" transform="translate(-8.264 -6.407)" fill="#ff8142"/>
      <path id="Trazado_903291" data-name="Trazado 903291" d="M49.278,39.22a2.481,2.481,0,0,0-1.053,2.018v2.176a1.206,1.206,0,0,1-1.2,1.2H35.751a1.206,1.206,0,0,1-1.2-1.2V41.289a2.538,2.538,0,0,0-1.041-2.05,13.61,13.61,0,1,1,15.767,0Z" transform="translate(-10.155 -5.328)" fill="#73d6ff"/>
      <path id="Trazado_903292" data-name="Trazado 903292" d="M51.182,29.14H35.231a2.018,2.018,0,0,0-1.9,1.4,10.311,10.311,0,0,0,1.1,8.883A4.238,4.238,0,0,0,38,41.322H48.415a4.289,4.289,0,0,0,3.629-2.005,10.33,10.33,0,0,0,1.047-8.781A2.018,2.018,0,0,0,51.182,29.14Z" transform="translate(-11.983 -10.666)" fill="#87ffff"/>
      <path id="Trazado_903293" data-name="Trazado 903293" d="M51.164,23.869a.895.895,0,0,0,.546-1.605,10.374,10.374,0,0,0-12.772,0,.895.895,0,0,0,.546,1.605Z" transform="translate(-14.104 -7.349)" fill="#87ffff"/>
      <path id="Trazado_903294" data-name="Trazado 903294" d="M50.745,66.132H37.484a2.1,2.1,0,1,1,0-4.194H50.745a2.1,2.1,0,1,1,0,4.194Z" transform="translate(-12.891 -22.652)" fill="#ffb942"/>
      <path id="Trazado_903295" data-name="Trazado 903295" d="M50.811,72.75H37.55a2.1,2.1,0,1,1,0-4.2H50.811a2.1,2.1,0,1,1,0,4.2Z" transform="translate(-12.957 -25.07)" fill="#ffb942"/>
      <path id="Trazado_903296" data-name="Trazado 903296" d="M49.2,66.132H43.224a2.1,2.1,0,1,1,0-4.194H49.2a2.1,2.1,0,1,1,0,4.194Z" transform="translate(-14.989 -22.652)" fill="#ffdc51"/>
      <path id="Trazado_903297" data-name="Trazado 903297" d="M48.088,66.132h-.634a2.1,2.1,0,1,1,0-4.194h.634a2.1,2.1,0,1,1,0,4.194Z" transform="translate(-16.535 -22.652)" fill="#fff"/>
      <path id="Trazado_903298" data-name="Trazado 903298" d="M49.267,72.75H43.29a2.1,2.1,0,1,1,0-4.2h5.977a2.1,2.1,0,1,1,0,4.2Z" transform="translate(-15.055 -25.07)" fill="#ffdc51"/>
      <path id="Trazado_903299" data-name="Trazado 903299" d="M50.264,78.812H40.29L38.45,75.17H52.1Z" transform="translate(-14.054 -27.49)" fill="#484f79"/>
      <path id="Trazado_903300" data-name="Trazado 903300" d="M52.763,33.89v-3.9l-1.9-.33a5.857,5.857,0,0,0-.266-.679l1.11-1.586-2.76-2.754-1.6,1.1c-.222-.1-.444-.2-.673-.279l-.343-1.9h-3.9l-.343,1.9c-.228.082-.45.178-.673.279l-1.612-1.1-2.735,2.754,1.11,1.586a7.234,7.234,0,0,0-.279.679l-1.9.33v3.9l1.9.343c.082.235.184.457.286.679l-1.11,1.58,2.728,2.76,1.58-1.1a7.387,7.387,0,0,0,.685.286l.336,1.9h3.9l.336-1.9c.235-.082.457-.184.685-.286l1.58,1.1,2.76-2.76-1.072-1.58a6.388,6.388,0,0,0,.286-.679Zm-8.375,1.758a3.7,3.7,0,1,1,2.618-1.086A3.705,3.705,0,0,1,44.388,35.647Z" transform="translate(-13.158 -8.626)" fill="#616d9c"/>
      <path id="Trazado_903301" data-name="Trazado 903301" d="M46.079,28.17a5.463,5.463,0,1,0,5.457,5.457A5.463,5.463,0,0,0,46.079,28.17Zm0,9.162a3.712,3.712,0,1,0-.006,0Z" transform="translate(-14.843 -10.311)" fill="#3e4579"/>
      <g id="Grupo_1110040" data-name="Grupo 1110040" transform="translate(-0.001 -0.041)">
        <path id="Trazado_903304" data-name="Trazado 903304" d="M60.727,9.921a.635.635,0,0,0,0-.895L51.844.144a.634.634,0,0,0-.895,0L39.675,11.469a14.244,14.244,0,0,0-16.459-.317L14.149,2.085a3.889,3.889,0,0,0-5.482,0L5.215,5.543a3.87,3.87,0,0,0,0,5.482c12.69,12.69,11.764,11.694,11.764,11.916a14.213,14.213,0,0,0,2.785,8.439L.184,50.96a.634.634,0,0,0,0,.895l8.883,8.883a.634.634,0,0,0,.895,0c.025-.076,12.512-12.531,12.88-12.925a2.741,2.741,0,0,0,1.129.558l1.707,3.376a.634.634,0,0,0,.565.349H36.21a.634.634,0,0,0,.565-.349l1.707-3.376A2.741,2.741,0,0,0,40.519,46.3c7.969,7.969,7.335,7.4,7.614,7.455,6.345,1.212,9.987,1.948,10.05,1.9a.634.634,0,0,0,.59-.406c.089-.235.063-.184-.286-2.024-1.719-9.01-1.548-8.382-1.751-8.585l-13.724-13.7a14.219,14.219,0,0,0,2.246-5.584c.063,0-.844.85,15.469-15.444ZM51.394,1.514,59.382,9.5l-4.441,4.441-2.671-2.671a.634.634,0,1,0-.876.876l2.671,2.671-2.449,2.449-1.11-1.117a.635.635,0,1,0-.895.9l1.11,1.11-2.468,2.443L47.136,19.5a.634.634,0,0,0-.895.895l1.11,1.117-1.9,1.9a14.187,14.187,0,0,0-4.8-11.129ZM8.749,12.764l7.113-7.138L17.886,7.65l-7.1,7.138ZM18.812,8.551l3.395,3.376a13.743,13.743,0,0,0-2.95,3.287l-3.56-3.56ZM6.123,6.444,9.581,2.986a2.6,2.6,0,0,1,3.68,0l1.745,1.745L7.855,11.869,6.11,10.137a2.6,2.6,0,0,1,0-3.693ZM11.674,15.7,14.8,12.567,18.6,16.374a14.3,14.3,0,0,0-1.472,4.746Zm9.847,31.649-1.117-1.117a.635.635,0,1,0-.895.9l1.11,1.11-2.443,2.443-1.11-1.11a.635.635,0,1,0-.9.895l1.11,1.117-2.443,2.443-2.671-2.646a.634.634,0,1,0-.895.895l2.69,2.646L9.517,59.361,1.529,51.379,20.564,32.344a14.124,14.124,0,0,0,2.367,2.145,1.961,1.961,0,0,1,.838,1.58V38.9a2.716,2.716,0,0,0-.926,4.721,2.728,2.728,0,0,0-.774,3.172Zm26.433-1.618L47.32,51.36,39.58,43.619A2.716,2.716,0,0,0,38.7,38.93V36.456Zm-8.616-4.207a1.478,1.478,0,0,1-1.466,1.466H24.593a1.466,1.466,0,1,1,0-2.931H37.854a1.472,1.472,0,0,1,1.485,1.466Zm-3.515,9.308H26.649l-1.193-2.373H37.016Zm2.037-3.642H24.58a1.466,1.466,0,1,1,0-2.931H37.841a1.434,1.434,0,0,1,.895.311l.26.26a1.466,1.466,0,0,1-1.136,2.36Zm10.628,5.33.711-6.446,6.434-.7c.089.089,0-.235.584,2.792L51.28,53.092C48.221,52.515,48.577,52.6,48.488,52.515Zm4.3.863L56.5,49.666l.876,4.587Zm1.694-9.162-5.628.634L39.028,35c.431-.634,1.548-.99,3.211-3.027Zm-15.742-10.7a3.173,3.173,0,0,0-1.231,1.764,16.568,16.568,0,0,0-.1,3.5H25.031V36.1a3.242,3.242,0,0,0-1.371-2.614,12.969,12.969,0,1,1,15.082.032Z" transform="translate(0.001 0.041)"/>
        <path id="Trazado_903305" data-name="Trazado 903305" d="M52.509,29.235c-1.719-.3-1.535-.247-1.567-.317l.907-1.269a.634.634,0,0,0-.07-.812l-2.76-2.754a.634.634,0,0,0-.812-.07c-1.421,1-1.269.914-1.332.888L46.6,23.34a.634.634,0,0,0-.634-.52H42.072a.634.634,0,0,0-.634.52c-.3,1.719-.254,1.548-.317,1.58l-1.269-.907a.634.634,0,0,0-.812.07l-2.766,2.728a.634.634,0,0,0-.076.812c1,1.434.914,1.269.888,1.345l-1.548.266a.634.634,0,0,0-.527.634v3.9a.634.634,0,0,0,.52.634c1.719.3,1.542.254,1.567.324l-.9,1.269a.635.635,0,0,0,.076.819l2.76,2.76a.634.634,0,0,0,.812.07c1.421-1,1.269-.907,1.345-.876l.266,1.548a.634.634,0,0,0,.634.52h3.9a.634.634,0,0,0,.634-.52c.3-1.726.247-1.535.324-1.574l1.269.9a.635.635,0,0,0,.812-.07l2.76-2.76a.635.635,0,0,0,.07-.812c-1-1.428-.914-1.269-.882-1.339l1.548-.273a.634.634,0,0,0,.52-.634V29.863a.634.634,0,0,0-.533-.628Zm-.742,4-1.377.241a.634.634,0,0,0-.482.412c-.076.216-.165.419-.26.634a.635.635,0,0,0,.051.634L50.5,36.3,48.5,38.3l-1.148-.774a.634.634,0,0,0-.634-.057,6.11,6.11,0,0,1-.634.266.634.634,0,0,0-.412.489L45.428,39.6H42.618l-.241-1.371a.634.634,0,0,0-.412-.489c-.216-.076-.425-.165-.634-.26a.634.634,0,0,0-.615.051l-1.148.8L37.542,36.29l.806-1.142a.634.634,0,0,0,.051-.634,5.758,5.758,0,0,1-.26-.634.635.635,0,0,0-.482-.412l-1.383-.235V30.4l1.377-.241a.634.634,0,0,0,.489-.412,6.711,6.711,0,0,1,.254-.634.634.634,0,0,0-.051-.634l-.8-1.142,2.005-2,1.167.806a.635.635,0,0,0,.634.051,6.585,6.585,0,0,1,.634-.254.635.635,0,0,0,.406-.482l.228-1.39h2.836l.235,1.409a.635.635,0,0,0,.4.482,6.585,6.585,0,0,1,.634.254.634.634,0,0,0,.634-.051l1.155-.806,2.005,2-.806,1.155a.635.635,0,0,0-.051.634,6.713,6.713,0,0,1,.254.634.634.634,0,0,0,.489.412l1.377.241Z" transform="translate(-12.796 -8.315)"/>
        <path id="Trazado_903306" data-name="Trazado 903306" d="M46.716,30.16A4.34,4.34,0,1,0,51.05,34.5a4.34,4.34,0,0,0-4.334-4.34Zm0,7.4A3.071,3.071,0,1,1,49.781,34.5a3.071,3.071,0,0,1-3.065,3.065Z" transform="translate(-15.486 -10.998)"/>
      </g>
    </g>
  </g>
</svg>
