<svg xmlns="http://www.w3.org/2000/svg" xmlns:xlink="http://www.w3.org/1999/xlink" width="111.381" height="111.381" viewBox="0 0 111.381 111.381">
  <defs>
    <filter id="Trazado_873672" x="0" y="0" width="111.381" height="111.381" filterUnits="userSpaceOnUse">
      <feOffset dy="3" input="SourceAlpha"/>
      <feGaussianBlur stdDeviation="3" result="blur"/>
      <feFlood flood-opacity="0.161"/>
      <feComposite operator="in" in2="blur"/>
      <feComposite in="SourceGraphic"/>
    </filter>
  </defs>
  <g id="Grupo_1109915" data-name="Grupo 1109915" transform="translate(-970.047 -446.863)">
    <g id="Rectángulo_400898" data-name="Rectángulo 400898" transform="translate(979.047 452.863)" fill="#fff" stroke="#fff" stroke-width="3" opacity="0.98">
      <rect width="93.381" height="93.381" rx="46.691" stroke="none"/>
      <rect x="1.5" y="1.5" width="90.381" height="90.381" rx="45.191" fill="none"/>
    </g>
    <g transform="matrix(1, 0, 0, 1, 970.05, 446.86)" filter="url(#Trazado_873672)">
      <g id="Trazado_873672-2" data-name="Trazado 873672" transform="translate(9 6)" fill="none" opacity="0.95">
        <path d="M46.691,0A46.691,46.691,0,1,1,0,46.691,46.691,46.691,0,0,1,46.691,0Z" stroke="none"/>
        <path d="M 46.690673828125 3 C 40.79114532470703 3 35.06968688964844 4.154762268066406 29.68521499633789 6.432205200195312 C 24.48291778564453 8.632591247558594 19.81014251708984 11.78325653076172 15.79669952392578 15.79669952392578 C 11.78325653076172 19.81014251708984 8.632591247558594 24.48291778564453 6.432205200195312 29.68521499633789 C 4.154762268066406 35.06968688964844 3 40.79114532470703 3 46.690673828125 C 3 52.59020233154297 4.154762268066406 58.31166076660156 6.432205200195312 63.69614410400391 C 8.632591247558594 68.89842987060547 11.78325653076172 73.57120513916016 15.79669952392578 77.58464813232422 C 19.81014251708984 81.59809112548828 24.48291778564453 84.74875640869141 29.68521499633789 86.94914245605469 C 35.06968688964844 89.22658538818359 40.79114532470703 90.38134765625 46.690673828125 90.38134765625 C 52.59020233154297 90.38134765625 58.31167221069336 89.22658538818359 63.69614410400391 86.94914245605469 C 68.89842987060547 84.74875640869141 73.57120513916016 81.59809112548828 77.58464813232422 77.58464813232422 C 81.59809112548828 73.57120513916016 84.74875640869141 68.89842987060547 86.94914245605469 63.69614410400391 C 89.22658538818359 58.31167221069336 90.38134765625 52.59020233154297 90.38134765625 46.690673828125 C 90.38134765625 40.79114532470703 89.22658538818359 35.06968688964844 86.94914245605469 29.68521499633789 C 84.74875640869141 24.48291778564453 81.59809112548828 19.81014251708984 77.58464813232422 15.79669952392578 C 73.57120513916016 11.78325653076172 68.89842987060547 8.632591247558594 63.69614410400391 6.432205200195312 C 58.31166076660156 4.154762268066406 52.59020233154297 3 46.690673828125 3 M 46.690673828125 0 C 72.47723388671875 0 93.38134765625 20.90412902832031 93.38134765625 46.690673828125 C 93.38134765625 72.47723388671875 72.47723388671875 93.38134765625 46.690673828125 93.38134765625 C 20.90412902832031 93.38134765625 0 72.47723388671875 0 46.690673828125 C 0 20.90412902832031 20.90412902832031 0 46.690673828125 0 Z" stroke="none" fill="#fff"/>
      </g>
    </g>
    <g id="_x32_8" transform="translate(995.417 469.643)">
      <path id="Trazado_873648" data-name="Trazado 873648" d="M57.181,40.744V33.506c0-11.578-7.949-21.259-18.844-24.593,0-.034.01-.065.01-.1a4.544,4.544,0,0,0-4.539-4.539H27.491a4.539,4.539,0,0,0-4.528,4.433C11.452,11.943,3.481,22,3.481,33.506v7.213a4.163,4.163,0,0,0-1.159,1.639,4.516,4.516,0,0,0,4.168,6.207h.736v2.183a4.808,4.808,0,0,0,4.8,4.8h12.51a4.8,4.8,0,0,0,3.734-1.782,2.432,2.432,0,0,1,1.89-.9h0a2.434,2.434,0,0,1,1.892.9,4.785,4.785,0,0,0,3.729,1.775H48.6a4.808,4.808,0,0,0,4.8-4.8V48.574h.747a4.47,4.47,0,0,0,3.185-1.325,4.565,4.565,0,0,0,.984-4.882,4.164,4.164,0,0,0-1.139-1.623ZM27.491,6.634h6.317a2.179,2.179,0,0,1,0,4.358H27.491a2.179,2.179,0,1,1,0-4.358ZM6.491,46.2a2.154,2.154,0,0,1-1.966-3h0a2.168,2.168,0,0,1,2.068-1.276h.633V46.2Zm3.1,4.543c.012-13.269,0-9.009,0-13.341a2.446,2.446,0,0,1,2.442-2.443h5.492l-4.43,18.226H12.029a2.446,2.446,0,0,1-2.442-2.442Zm5.934,2.442,4.43-18.226h3.182L18.7,53.188Zm14.653-2.678h-.009a4.8,4.8,0,0,0-3.734,1.783,2.433,2.433,0,0,1-1.89.9H21.131l4.43-18.226H39.5L35.1,53.077a2.424,2.424,0,0,1-1.2-.791,4.785,4.785,0,0,0-3.719-1.775ZM37.5,53.188l4.43-18.226h3.182l-4.43,18.226Zm13.545-2.442A2.446,2.446,0,0,1,48.6,53.189H43.11l4.43-18.226H48.6a2.446,2.446,0,0,1,2.442,2.443ZM48.6,32.6H12.029a4.808,4.808,0,0,0-4.8,4.8v2.162H6.593a4.863,4.863,0,0,0-.752.061V33.506c0-10.417,7.236-19.54,17.695-22.51a4.524,4.524,0,0,0,3.955,2.357h6.317a4.527,4.527,0,0,0,3.858-2.178c9.952,3.054,17.155,11.863,17.155,22.331v6.138a4.853,4.853,0,0,0-.773-.066H53.4V37.406a4.808,4.808,0,0,0-4.8-4.8Zm5.549,13.611h-.746V41.938h.642a2.139,2.139,0,1,1,.1,4.275Z" transform="translate(0 0)" fill="#1a2f50"/>
    </g>
  </g>
</svg>
