<svg xmlns="http://www.w3.org/2000/svg" xmlns:xlink="http://www.w3.org/1999/xlink" width="103" height="103" viewBox="0 0 103 103">
  <defs>
    <filter id="Trazado_873671" x="0" y="0" width="103" height="103" filterUnits="userSpaceOnUse">
      <feOffset dy="3" input="SourceAlpha"/>
      <feGaussianBlur stdDeviation="3" result="blur"/>
      <feFlood flood-opacity="0.161"/>
      <feComposite operator="in" in2="blur"/>
      <feComposite in="SourceGraphic"/>
    </filter>
  </defs>
  <g id="Grupo_1109914" data-name="Grupo 1109914" transform="translate(11469.472 13166.472)">
    <g id="Trazado_873670" data-name="Trazado 873670" transform="translate(-11460.472 -13160.472)" fill="#fff" opacity="0.98">
      <path d="M 42.5 83.5 C 36.96437835693359 83.5 31.59512901306152 82.41617584228516 26.54141235351562 80.27863311767578 C 21.65934181213379 78.21369171142578 17.27447128295898 75.25723266601562 13.50862312316895 71.49137878417969 C 9.742764472961426 67.72553253173828 6.786305904388428 63.34066009521484 4.721364498138428 58.45858764648438 C 2.583823442459106 53.40486907958984 1.5 48.03562164306641 1.5 42.5 C 1.5 36.96437835693359 2.583823442459106 31.59512901306152 4.721364498138428 26.54141235351562 C 6.786305904388428 21.65934181213379 9.742764472961426 17.27447128295898 13.50862312316895 13.50862312316895 C 17.27447128295898 9.742764472961426 21.65934181213379 6.786305904388428 26.54141235351562 4.721364498138428 C 31.59512901306152 2.583823442459106 36.96437835693359 1.5 42.5 1.5 C 48.03562164306641 1.5 53.40486907958984 2.583823442459106 58.45858764648438 4.721364498138428 C 63.34066009521484 6.786305904388428 67.72553253173828 9.742764472961426 71.49137878417969 13.50862312316895 C 75.25723266601562 17.27447128295898 78.21369171142578 21.65934181213379 80.27863311767578 26.54141235351562 C 82.41617584228516 31.59512901306152 83.5 36.96437835693359 83.5 42.5 C 83.5 48.03562164306641 82.41617584228516 53.40486907958984 80.27863311767578 58.45858764648438 C 78.21369171142578 63.34066009521484 75.25723266601562 67.72553253173828 71.49137878417969 71.49137878417969 C 67.72553253173828 75.25723266601562 63.34066009521484 78.21369171142578 58.45858764648438 80.27863311767578 C 53.40486907958984 82.41617584228516 48.03562164306641 83.5 42.5 83.5 Z" stroke="none"/>
      <path d="M 42.5 3 C 37.16621398925781 3 31.99356079101562 4.043960571289062 27.125732421875 6.102882385253906 C 22.42246627807617 8.092185974121094 18.19785308837891 10.94070434570312 14.56928253173828 14.56928253173828 C 10.94070434570312 18.19785308837891 8.092185974121094 22.42246627807617 6.102882385253906 27.125732421875 C 4.043960571289062 31.99356079101562 3 37.16621398925781 3 42.5 C 3 47.83378601074219 4.043960571289062 53.00643920898438 6.102882385253906 57.874267578125 C 8.092185974121094 62.57753372192383 10.94070434570312 66.80214691162109 14.56928253173828 70.43071746826172 C 18.19785308837891 74.05929565429688 22.42246627807617 76.90781402587891 27.125732421875 78.89711761474609 C 31.99356079101562 80.95603942871094 37.16621398925781 82 42.5 82 C 47.83378601074219 82 53.00643920898438 80.95603942871094 57.874267578125 78.89711761474609 C 62.57753372192383 76.90781402587891 66.80214691162109 74.05929565429688 70.43071746826172 70.43071746826172 C 74.05929565429688 66.80214691162109 76.90781402587891 62.57753372192383 78.89711761474609 57.874267578125 C 80.95603942871094 53.00643920898438 82 47.83378601074219 82 42.5 C 82 37.16621398925781 80.95603942871094 31.99356079101562 78.89711761474609 27.125732421875 C 76.90781402587891 22.42246627807617 74.05929565429688 18.19785308837891 70.43071746826172 14.56928253173828 C 66.80214691162109 10.94070434570312 62.57753372192383 8.092185974121094 57.874267578125 6.102882385253906 C 53.00643920898438 4.043960571289062 47.83378601074219 3 42.5 3 M 42.5 0 C 65.97210693359375 0 85 19.02789306640625 85 42.5 C 85 65.97210693359375 65.97210693359375 85 42.5 85 C 19.02789306640625 85 0 65.97210693359375 0 42.5 C 0 19.02789306640625 19.02789306640625 0 42.5 0 Z" stroke="none" fill="#e2dacc"/>
    </g>
    <g transform="matrix(1, 0, 0, 1, -11469.47, -13166.47)" filter="url(#Trazado_873671)">
      <g id="Trazado_873671-2" data-name="Trazado 873671" transform="translate(9 6)" fill="none" opacity="0.95">
        <path d="M42.5,0A42.5,42.5,0,1,1,0,42.5,42.5,42.5,0,0,1,42.5,0Z" stroke="none"/>
        <path d="M 42.5 3 C 37.16621398925781 3 31.99356079101562 4.043960571289062 27.125732421875 6.102882385253906 C 22.42246627807617 8.092185974121094 18.19785308837891 10.94070434570312 14.56928253173828 14.56928253173828 C 10.94070434570312 18.19785308837891 8.092185974121094 22.42246627807617 6.102882385253906 27.125732421875 C 4.043960571289062 31.99356079101562 3 37.16621398925781 3 42.5 C 3 47.83378601074219 4.043960571289062 53.00643920898438 6.102882385253906 57.874267578125 C 8.092185974121094 62.57753372192383 10.94070434570312 66.80214691162109 14.56928253173828 70.43071746826172 C 18.19785308837891 74.05929565429688 22.42246627807617 76.90781402587891 27.125732421875 78.89711761474609 C 31.99356079101562 80.95603942871094 37.16621398925781 82 42.5 82 C 47.83378601074219 82 53.00643920898438 80.95603942871094 57.874267578125 78.89711761474609 C 62.57753372192383 76.90781402587891 66.80214691162109 74.05929565429688 70.43071746826172 70.43071746826172 C 74.05929565429688 66.80214691162109 76.90781402587891 62.57753372192383 78.89711761474609 57.874267578125 C 80.95603942871094 53.00643920898438 82 47.83378601074219 82 42.5 C 82 37.16621398925781 80.95603942871094 31.99356079101562 78.89711761474609 27.125732421875 C 76.90781402587891 22.42246627807617 74.05929565429688 18.19785308837891 70.43071746826172 14.56928253173828 C 66.80214691162109 10.94070434570312 62.57753372192383 8.092185974121094 57.874267578125 6.102882385253906 C 53.00643920898438 4.043960571289062 47.83378601074219 3 42.5 3 M 42.5 0 C 65.97210693359375 0 85 19.02789306640625 85 42.5 C 85 65.97210693359375 65.97210693359375 85 42.5 85 C 19.02789306640625 85 0 65.97210693359375 0 42.5 C 0 19.02789306640625 19.02789306640625 0 42.5 0 Z" stroke="none" fill="#fff"/>
      </g>
    </g>
    <path id="welder_9439179" d="M72.521,27.887l-1.556-1.354a3.128,3.128,0,0,0-4.049.012,2.478,2.478,0,0,0-.784,1.235H63.615a.715.715,0,0,0-.712.712v5.094h-.629a2.294,2.294,0,0,0-1.081,4.322v5.629a3.559,3.559,0,0,0-.487-.214L48.653,38.645c-.249-.1-.511-.178-.76-.249V32.827a13.335,13.335,0,0,0,5.581-8.787h1.781a3.089,3.089,0,0,0,.772-6.08V6.737A3.54,3.54,0,0,0,52.488,3.2h-.712V1.287A1.3,1.3,0,0,0,50.161.016c-4.275,1.057-9.025.95-13.609.855C35.21.848,33.821.812,32.467.812a3.589,3.589,0,0,0-3.384,2.375h-.926a3.54,3.54,0,0,0-3.539,3.539V17.971a3.084,3.084,0,0,0,.784,6.068h1.781a13.307,13.307,0,0,0,5.581,8.787V38.4a6.305,6.305,0,0,0-.76.249L19.939,43.336a6.605,6.605,0,0,0-4.18,5.5.719.719,0,0,0,.617.8h.083a.7.7,0,0,0,.7-.629,5.2,5.2,0,0,1,3.289-4.334l6.531-2.541v7.944a3.286,3.286,0,0,0-1.686,2.874v6.412H19.31a2.269,2.269,0,0,1-2.185-2.339V53.5a.712.712,0,1,0-1.425,0v3.515a3.677,3.677,0,0,0,3.6,3.752H61.335a3.691,3.691,0,0,0,3.61-3.669,3.054,3.054,0,0,0,2.992-3.052v-2.2a3.07,3.07,0,0,0-1.9-2.838V37.9a2.294,2.294,0,0,0-1.081-4.322h-.629V29.193H66.18a2.541,2.541,0,0,0,.76,1.116,3.1,3.1,0,0,0,2.031.736,3.046,3.046,0,0,0,2.007-.724l1.567-1.377a.7.7,0,0,0,.237-.534.767.767,0,0,0-.261-.522ZM62.618,48.8V38.182h1.995V48.8Zm-10.39-7.066V52.04a1.734,1.734,0,1,1-3.467,0V40.225l3.479,1.354c0,.048-.012.1-.012.154ZM33.3,41.994a7.553,7.553,0,0,0,14.036,0v7.659H33.3Zm23.619-21.03a1.667,1.667,0,0,1-1.662,1.662H53.628c.012-.249.024-.5.024-.748V19.3h1.6A1.667,1.667,0,0,1,56.918,20.964ZM25.39,22.626a1.662,1.662,0,0,1,0-3.325h1.6v2.577c0,.249.012.5.024.748Zm3.028-.748V8.9a1.323,1.323,0,0,1,1.318-1.318h6a.712.712,0,0,0,0-1.425h-6A2.744,2.744,0,0,0,26.993,8.9v8.977h-.974V6.737a2.118,2.118,0,0,1,2.114-2.114h1.472a.714.714,0,0,0,.7-.582,2.178,2.178,0,0,1,2.149-1.793c1.33,0,2.719.036,4.049.059,4.631.095,9.429.2,13.846-.855V3.9a.715.715,0,0,0,.712.712h1.425A2.118,2.118,0,0,1,54.6,6.726V17.864H53.64V8.9A2.752,2.752,0,0,0,50.9,6.156H40.317a.712.712,0,1,0,0,1.425H50.9A1.323,1.323,0,0,1,52.215,8.9V21.866a12.254,12.254,0,0,1-.071,1.318.366.366,0,0,0-.012.119,11.926,11.926,0,0,1-5.261,8.5.775.775,0,0,0-.178.119,11.835,11.835,0,0,1-6.377,1.864,11.7,11.7,0,0,1-6.377-1.864.665.665,0,0,0-.178-.119,11.9,11.9,0,0,1-5.344-9.927ZM40.317,35.2a13.225,13.225,0,0,0,6.139-1.508V39.18a6.139,6.139,0,1,1-12.279,0V33.693A13.225,13.225,0,0,0,40.317,35.2Zm-8.443,5.023V52.04a1.734,1.734,0,1,1-3.467,0V41.733a.6.6,0,0,0-.024-.154ZM26.72,52.931a1.871,1.871,0,0,1,.261-.95v.059a3.153,3.153,0,0,0,6.306,0v-.962H47.335v.962a3.147,3.147,0,1,0,6.294,0v-.059a1.925,1.925,0,0,1,.273.962v6.412H43.452v-1.9a3.154,3.154,0,0,0-6.294,0v1.9H26.708V52.931Zm11.875,6.424v-1.9a1.632,1.632,0,0,1,1.734-1.52,1.772,1.772,0,0,1,1.627,1.021c0,.012.012.024.012.036.012.036.024.059.036.095s.012.036.012.059a.261.261,0,0,1,.012.095.514.514,0,0,0,.012.059.73.73,0,0,1,.012.166v1.888Zm22.74,0H55.35V52.931a3.311,3.311,0,0,0-1.7-2.874V42.113l6.531,2.541a5.421,5.421,0,0,1,1.009.522V48.8h-.356a1.541,1.541,0,0,0-1.544,1.544v5.213A1.541,1.541,0,0,0,60.836,57.1h2.672a2.247,2.247,0,0,1-2.173,2.256Zm5.177-5.3A1.642,1.642,0,0,1,64.874,55.7H60.836a.119.119,0,0,1-.119-.119V50.366a.128.128,0,0,1,.119-.119h4.037a1.642,1.642,0,0,1,1.639,1.639Zm-.689-18.18a.877.877,0,0,1-.879.879H62.261a.879.879,0,0,1,0-1.757h2.684A.892.892,0,0,1,65.824,35.878Zm4.192-6.614a1.7,1.7,0,0,1-2.149-.012,1.043,1.043,0,0,1-.012-1.639,1.71,1.71,0,0,1,1.1-.4,1.637,1.637,0,0,1,1.081.392l.938.819ZM49.983,22.4V13.862a1.647,1.647,0,0,0-1.651-1.651H32.313a1.647,1.647,0,0,0-1.651,1.651V22.4a1.647,1.647,0,0,0,1.651,1.651H48.332A1.662,1.662,0,0,0,49.983,22.4Zm-17.9,0V13.862a.234.234,0,0,1,.226-.226H48.332a.234.234,0,0,1,.226.226V22.4a.234.234,0,0,1-.226.226H32.313A.234.234,0,0,1,32.087,22.4Z" transform="translate(-11459.28 -13150.091)" fill="#1a2f50" stroke="#1a2f50" stroke-width="0.3"/>
  </g>
</svg>
