<svg xmlns="http://www.w3.org/2000/svg" xmlns:xlink="http://www.w3.org/1999/xlink" width="107" height="107" viewBox="0 0 107 107">
  <defs>
    <filter id="Rect치ngulo_400907" x="0" y="0" width="107" height="107" filterUnits="userSpaceOnUse">
      <feOffset dy="3" input="SourceAlpha"/>
      <feGaussianBlur stdDeviation="3" result="blur"/>
      <feFlood flood-opacity="0.161"/>
      <feComposite operator="in" in2="blur"/>
      <feComposite in="SourceGraphic"/>
    </filter>
  </defs>
  <g id="Grupo_1099444" data-name="Grupo 1099444" transform="translate(11462 12916)">
    <g id="Trazado_873673" data-name="Trazado 873673" transform="translate(-11453 -12910)" fill="#fff" opacity="0.98">
      <path d="M 44.5 87.5 C 38.69437408447266 87.5 33.06321334838867 86.36329650878906 27.76291275024414 84.1214599609375 C 22.64268684387207 81.95578765869141 18.04393768310547 78.85512542724609 14.0944128036499 74.90558624267578 C 10.14487457275391 70.95606231689453 7.044212341308594 66.35731506347656 4.878537654876709 61.23708724975586 C 2.636699914932251 55.93678665161133 1.5 50.30562591552734 1.5 44.5 C 1.5 38.69437408447266 2.636699914932251 33.06321334838867 4.878537654876709 27.76291275024414 C 7.044212341308594 22.64268684387207 10.14487457275391 18.04393768310547 14.0944128036499 14.0944128036499 C 18.04393768310547 10.14487457275391 22.64268684387207 7.044212341308594 27.76291275024414 4.878537654876709 C 33.06321334838867 2.636699914932251 38.69437408447266 1.5 44.5 1.5 C 50.30562591552734 1.5 55.93678665161133 2.636699914932251 61.23708724975586 4.878537654876709 C 66.35731506347656 7.044212341308594 70.95606231689453 10.14487457275391 74.90558624267578 14.0944128036499 C 78.85512542724609 18.04393768310547 81.95578765869141 22.64268684387207 84.1214599609375 27.76291275024414 C 86.36329650878906 33.06321334838867 87.5 38.69437408447266 87.5 44.5 C 87.5 50.30562591552734 86.36329650878906 55.93678665161133 84.1214599609375 61.23708724975586 C 81.95578765869141 66.35731506347656 78.85512542724609 70.95606231689453 74.90558624267578 74.90558624267578 C 70.95606231689453 78.85512542724609 66.35731506347656 81.95578765869141 61.23708724975586 84.1214599609375 C 55.93678665161133 86.36329650878906 50.30562591552734 87.5 44.5 87.5 Z" stroke="none"/>
      <path d="M 44.5 3 C 38.89621353149414 3 33.46164321899414 4.096839904785156 28.34724426269531 6.260040283203125 C 23.40581512451172 8.35009765625 18.96733093261719 11.34281158447266 15.15507507324219 15.15507507324219 C 11.34281158447266 18.96733093261719 8.35009765625 23.40581512451172 6.260040283203125 28.34724426269531 C 4.096839904785156 33.46164321899414 3 38.89621353149414 3 44.5 C 3 50.10378646850586 4.096839904785156 55.53835678100586 6.260040283203125 60.65275573730469 C 8.35009765625 65.59418487548828 11.34281158447266 70.03266906738281 15.15507507324219 73.84492492675781 C 18.96733093261719 77.65718841552734 23.40581512451172 80.64990234375 28.34724426269531 82.73995971679688 C 33.46164321899414 84.90316009521484 38.89621353149414 86 44.5 86 C 50.10378646850586 86 55.53835678100586 84.90316009521484 60.65275573730469 82.73995971679688 C 65.59418487548828 80.64990234375 70.03266906738281 77.65718841552734 73.84492492675781 73.84492492675781 C 77.65718841552734 70.03266906738281 80.64990234375 65.59418487548828 82.73995971679688 60.65275573730469 C 84.90316009521484 55.53835678100586 86 50.10378646850586 86 44.5 C 86 38.89621353149414 84.90316009521484 33.46164321899414 82.73995971679688 28.34724426269531 C 80.64990234375 23.40581512451172 77.65718841552734 18.96733093261719 73.84492492675781 15.15507507324219 C 70.03266906738281 11.34281158447266 65.59418487548828 8.35009765625 60.65275573730469 6.260040283203125 C 55.53835678100586 4.096839904785156 50.10378646850586 3 44.5 3 M 44.5 0 C 69.07667541503906 0 89 19.92333221435547 89 44.5 C 89 69.07667541503906 69.07667541503906 89 44.5 89 C 19.92333221435547 89 0 69.07667541503906 0 44.5 C 0 19.92333221435547 19.92333221435547 0 44.5 0 Z" stroke="none" fill="#fff"/>
    </g>
    <g transform="matrix(1, 0, 0, 1, -11462, -12916)" filter="url(#Rect치ngulo_400907)">
      <g id="Rect치ngulo_400907-2" data-name="Rect치ngulo 400907" transform="translate(9 6)" fill="none" stroke="#fff" stroke-width="3" opacity="0.95">
        <rect width="89" height="89" rx="44.5" stroke="none"/>
        <rect x="1.5" y="1.5" width="86" height="86" rx="43" fill="none"/>
      </g>
    </g>
    <g id="aprobado_6_" data-name="aprobado (6)" transform="translate(-11434.753 -12891.753)">
      <g id="Grupo_1099393" data-name="Grupo 1099393" transform="translate(12.785 1)">
        <path id="Trazado_873656" data-name="Trazado 873656" d="M8.842,9.418A.842.842,0,0,1,8,8.576V1.842A.842.842,0,0,1,8.842,1H35.778a.842.842,0,1,1,0,1.684H9.684V8.576A.842.842,0,0,1,8.842,9.418Z" transform="translate(-8 -1)" fill="#1a2f50"/>
      </g>
      <g id="Grupo_1099395" data-name="Grupo 1099395" transform="translate(39.721 1.001)">
        <g id="Grupo_1099394" data-name="Grupo 1099394">
          <path id="Trazado_873657" data-name="Trazado 873657" d="M34.908,12.784H24.842A.842.842,0,0,1,24,11.942V6.05a.842.842,0,1,1,1.684,0V11.1h7.2L24.244,2.436a.842.842,0,1,1,1.194-1.187L35.5,11.35a.841.841,0,0,1-.6,1.434Z" transform="translate(-24 -1.001)" fill="#1a2f50"/>
        </g>
      </g>
      <g id="approved_1_" transform="translate(1 7.734)">
        <g id="customer_survey_questionnaire_2_" transform="translate(25.253 3.367)">
          <g id="Grupo_1099398" data-name="Grupo 1099398">
            <g id="Grupo_1099397" data-name="Grupo 1099397">
              <g id="Grupo_1099396" data-name="Grupo 1099396">
                <path id="Trazado_873658" data-name="Trazado 873658" d="M40.411,47.4H16.842a.842.842,0,1,1,0-1.684H39.569V7.842a.842.842,0,1,1,1.684,0V46.563A.842.842,0,0,1,40.411,47.4Z" transform="translate(-16 -7)" fill="#1a2f50"/>
              </g>
            </g>
          </g>
        </g>
        <g id="Grupo_1099410" data-name="Grupo 1099410" transform="translate(0 3.367)">
          <g id="Grupo_1099400" data-name="Grupo 1099400" transform="translate(5.051)">
            <g id="Grupo_1099399" data-name="Grupo 1099399">
              <path id="Trazado_873659" data-name="Trazado 873659" d="M11.576,7A7.585,7.585,0,0,0,4,14.576a7.471,7.471,0,0,0,1.6,4.643c1.455,1.86,3.448,4.411,3.448,6.9v.239a.842.842,0,0,0,1.684,0v-.239c0-3.072-2.2-5.886-3.815-7.955a5.779,5.779,0,0,1-1.236-3.591,5.892,5.892,0,1,1,11.785,0,5.8,5.8,0,0,1-1.246,3.606c-1.606,2.054-3.8,4.867-3.8,7.94v3.606h.842a1.625,1.625,0,0,1,.842.258V26.122c0-2.492,1.993-5.042,3.46-6.918a7.457,7.457,0,0,0,1.591-4.628A7.585,7.585,0,0,0,11.576,7Z" transform="translate(-4 -7)" fill="#1a2f50"/>
            </g>
          </g>
          <g id="Grupo_1099403" data-name="Grupo 1099403" transform="translate(0 26.936)">
            <g id="Grupo_1099402" data-name="Grupo 1099402">
              <g id="Grupo_1099401" data-name="Grupo 1099401">
                <path id="Trazado_873660" data-name="Trazado 873660" d="M25.411,33.1H1.842A.842.842,0,0,1,1,32.259V28.892A5.9,5.9,0,0,1,6.892,23h.842a.842.842,0,1,1,0,1.684H6.892a4.213,4.213,0,0,0-4.209,4.209v2.525H24.569V28.892a4.213,4.213,0,0,0-4.209-4.209H11.943a.842.842,0,1,1,0-1.684h8.418a5.9,5.9,0,0,1,5.892,5.892v3.367A.842.842,0,0,1,25.411,33.1Z" transform="translate(-1 -23)" fill="#1a2f50"/>
              </g>
            </g>
          </g>
          <g id="Grupo_1099406" data-name="Grupo 1099406" transform="translate(1.684 35.354)">
            <g id="Grupo_1099405" data-name="Grupo 1099405">
              <g id="Grupo_1099404" data-name="Grupo 1099404">
                <path id="Trazado_873661" data-name="Trazado 873661" d="M23.044,33.051H2.842A.842.842,0,0,1,2,32.209V28.842A.842.842,0,0,1,2.842,28h20.2a.842.842,0,0,1,.842.842v3.367A.842.842,0,0,1,23.044,33.051ZM3.684,31.367H22.2V29.684H3.684Z" transform="translate(-2 -28)" fill="#1a2f50"/>
              </g>
            </g>
          </g>
          <g id="Grupo_1099409" data-name="Grupo 1099409" transform="translate(8.418 21.886)">
            <g id="Grupo_1099408" data-name="Grupo 1099408">
              <g id="Grupo_1099407" data-name="Grupo 1099407">
                <path id="Trazado_873662" data-name="Trazado 873662" d="M13.576,23.367a.842.842,0,0,1-.842-.842.844.844,0,0,0-.842-.842H8.525a.844.844,0,0,0-.842.842.842.842,0,1,1-1.684,0A2.528,2.528,0,0,1,8.525,20h3.367a2.528,2.528,0,0,1,2.525,2.525A.842.842,0,0,1,13.576,23.367Z" transform="translate(-6 -20)" fill="#1a2f50"/>
              </g>
            </g>
          </g>
        </g>
        <g id="Grupo_1099426" data-name="Grupo 1099426" transform="translate(23.569 11.785)">
          <g id="Grupo_1099419" data-name="Grupo 1099419" transform="translate(5.098 1.684)">
            <g id="Grupo_1099418" data-name="Grupo 1099418">
              <g id="Grupo_1099417" data-name="Grupo 1099417">
                <g id="Grupo_1099416" data-name="Grupo 1099416">
                  <g id="Grupo_1099415" data-name="Grupo 1099415">
                    <g id="Grupo_1099414" data-name="Grupo 1099414">
                      <g id="Grupo_1099413" data-name="Grupo 1099413">
                        <g id="Grupo_1099412" data-name="Grupo 1099412">
                          <g id="Grupo_1099411" data-name="Grupo 1099411">
                            <path id="Trazado_873663" data-name="Trazado 873663" d="M23.08,24.785h-.02a.844.844,0,0,1-.628-.3l-4.209-5.051a.843.843,0,1,1,1.295-1.079l3.591,4.312,8.608-9.391a.841.841,0,1,1,1.239,1.138L23.7,24.512A.837.837,0,0,1,23.08,24.785Z" transform="translate(-18.028 -13)" fill="#1a2f50"/>
                          </g>
                        </g>
                      </g>
                    </g>
                  </g>
                </g>
              </g>
            </g>
          </g>
          <g id="Grupo_1099425" data-name="Grupo 1099425">
            <g id="Grupo_1099424" data-name="Grupo 1099424">
              <g id="Grupo_1099423" data-name="Grupo 1099423">
                <g id="Grupo_1099422" data-name="Grupo 1099422">
                  <g id="Grupo_1099421" data-name="Grupo 1099421">
                    <g id="Grupo_1099420" data-name="Grupo 1099420">
                      <path id="Trazado_873664" data-name="Trazado 873664" d="M25.1,32.2A10.1,10.1,0,1,1,30.19,13.374a.842.842,0,1,1-.848,1.455A8.419,8.419,0,1,0,33.519,22.1a8.513,8.513,0,0,0-.194-1.8.842.842,0,0,1,1.645-.362A10.275,10.275,0,0,1,35.2,22.1,10.111,10.111,0,0,1,25.1,32.2Z" transform="translate(-15 -12)" fill="#1a2f50"/>
                    </g>
                  </g>
                </g>
              </g>
            </g>
          </g>
        </g>
        <g id="Grupo_1099429" data-name="Grupo 1099429" transform="translate(20.202 3.367)">
          <g id="Grupo_1099428" data-name="Grupo 1099428">
            <g id="Grupo_1099427" data-name="Grupo 1099427">
              <path id="Trazado_873665" data-name="Trazado 873665" d="M24.785,7.842a.844.844,0,0,1-.842.842h-10.1a.842.842,0,1,1,0-1.684h10.1A.844.844,0,0,1,24.785,7.842Z" transform="translate(-13 -7)" fill="#1a2f50"/>
            </g>
          </g>
        </g>
        <g id="Grupo_1099432" data-name="Grupo 1099432" transform="translate(20.202)">
          <g id="Grupo_1099431" data-name="Grupo 1099431">
            <g id="Grupo_1099430" data-name="Grupo 1099430">
              <path id="Trazado_873666" data-name="Trazado 873666" d="M28.152,5.842a.844.844,0,0,1-.842.842H13.842a.842.842,0,1,1,0-1.684H27.31A.844.844,0,0,1,28.152,5.842Z" transform="translate(-13 -5)" fill="#1a2f50"/>
            </g>
          </g>
        </g>
      </g>
    </g>
  </g>
</svg>
