<svg xmlns="http://www.w3.org/2000/svg" xmlns:xlink="http://www.w3.org/1999/xlink" width="108.914" height="108.914" viewBox="0 0 108.914 108.914">
  <defs>
    <filter id="Trazado_874925" x="0" y="0" width="108.914" height="108.914" filterUnits="userSpaceOnUse">
      <feOffset dy="3" input="SourceAlpha"/>
      <feGaussianBlur stdDeviation="3" result="blur"/>
      <feFlood flood-opacity="0.161"/>
      <feComposite operator="in" in2="blur"/>
      <feComposite in="SourceGraphic"/>
    </filter>
  </defs>
  <g id="Grupo_1110020" data-name="Grupo 1110020" transform="translate(-818.384 -1946.211)">
    <g id="Grupo_1109131" data-name="Grupo 1109131">
      <g transform="matrix(1, 0, 0, 1, 818.38, 1946.21)" filter="url(#Trazado_874925)">
        <g id="Trazado_874925-2" data-name="Trazado 874925" transform="translate(9 6)" fill="#aebfd9" opacity="0.859">
          <path d="M 45.45676803588867 89.41407012939453 C 39.52198028564453 89.41407012939453 33.76551818847656 88.25206756591797 28.34726715087891 85.96034240722656 C 23.11311721801758 83.74648284912109 18.41204261779785 80.57682800292969 14.37464332580566 76.5394287109375 C 10.33724308013916 72.50202941894531 7.167593002319336 67.80095672607422 4.953730583190918 62.56679534912109 C 2.662005424499512 57.14855575561523 1.500005483627319 51.39208221435547 1.500005483627319 45.45729446411133 C 1.500005483627319 39.52198028564453 2.662005424499512 33.76551818847656 4.953730583190918 28.34726905822754 C 7.167593002319336 23.11310577392578 10.33724308013916 18.41203117370605 14.37464332580566 14.37464332580566 C 18.41204261779785 10.33724403381348 23.11311721801758 7.167593955993652 28.34726715087891 4.953731060028076 C 33.76551818847656 2.662006139755249 39.52198028564453 1.500006198883057 45.45676803588867 1.500006198883057 C 51.39155578613281 1.500006198883057 57.14802932739258 2.662006139755249 62.56626892089844 4.953731060028076 C 67.80043029785156 7.167593955993652 72.50150299072266 10.33724403381348 76.53890228271484 14.37464332580566 C 80.57630920410156 18.41203117370605 83.74595642089844 23.11310577392578 85.95981597900391 28.34726905822754 C 88.25154113769531 33.76551818847656 89.41354370117188 39.52198028564453 89.41354370117188 45.45676803588867 C 89.41354370117188 51.39208221435547 88.25154113769531 57.14855575561523 85.95981597900391 62.56679534912109 C 83.74595642089844 67.80095672607422 80.57630920410156 72.50202941894531 76.53890228271484 76.5394287109375 C 72.50150299072266 80.57682800292969 67.80043029785156 83.74648284912109 62.56626892089844 85.96034240722656 C 57.14802932739258 88.25206756591797 51.39155578613281 89.41407012939453 45.45676803588867 89.41407012939453 Z" stroke="none"/>
          <path d="M 45.45676803588867 3 C 39.72381210327148 3 34.1639404296875 4.12213134765625 28.93159484863281 6.335227966308594 C 23.87622833251953 8.473472595214844 19.33542633056641 11.53517150878906 15.43529510498047 15.435302734375 C 11.53517150878906 19.33543395996094 8.473464965820312 23.87622833251953 6.335227966308594 28.93160247802734 C 4.122123718261719 34.16394424438477 3 39.72381591796875 3 45.4572868347168 C 3 51.19024658203125 4.122123718261719 56.75011825561523 6.335227966308594 61.98246002197266 C 8.473464965820312 67.03782653808594 11.53517150878906 71.57862854003906 15.43529510498047 75.478759765625 C 19.33542633056641 79.37889099121094 23.87622833251953 82.44058990478516 28.93159484863281 84.57883453369141 C 34.1639404296875 86.79193115234375 39.72381210327148 87.9140625 45.45676803588867 87.9140625 C 51.18972396850586 87.9140625 56.74959564208984 86.79193115234375 61.98194122314453 84.57883453369141 C 67.03730773925781 82.44058990478516 71.57810974121094 79.37889099121094 75.47824096679688 75.478759765625 C 79.37837219238281 71.57862854003906 82.44007110595703 67.03782653808594 84.57830810546875 61.98246002197266 C 86.79141235351562 56.75011825561523 87.91353607177734 51.19024658203125 87.91353607177734 45.4567756652832 C 87.91353607177734 39.72381591796875 86.79141235351562 34.16394424438477 84.57830810546875 28.93160247802734 C 82.44007110595703 23.87622833251953 79.37837219238281 19.33543395996094 75.47824096679688 15.435302734375 C 71.57810974121094 11.53517150878906 67.03730773925781 8.473472595214844 61.98194122314453 6.335227966308594 C 56.74959564208984 4.12213134765625 51.18972396850586 3 45.45676803588867 3 M 45.45676803588867 0 C 70.56185150146484 0 90.91353607177734 20.35169219970703 90.91353607177734 45.4567756652832 L 90.91353607177734 45.4572868347168 C 90.91353607177734 70.5623779296875 70.56185150146484 90.9140625 45.45676803588867 90.9140625 C 20.3516845703125 90.9140625 0 70.5623779296875 0 45.4572868347168 L 0 45.4567756652832 C 0 20.35169219970703 20.3516845703125 0 45.45676803588867 0 Z" stroke="none" fill="#fff"/>
        </g>
      </g>
      <g id="Grupo_1109130" data-name="Grupo 1109130">
        <g id="Trazado_874923" data-name="Trazado 874923" transform="translate(827.384 1952.211)" fill="none">
          <path d="M45.457,0A45.457,45.457,0,0,1,90.914,45.457h0A45.457,45.457,0,0,1,0,45.457H0A45.457,45.457,0,0,1,45.457,0Z" stroke="none"/>
          <path d="M 45.45676803588867 3 C 39.72381210327148 3 34.1639404296875 4.12213134765625 28.93159484863281 6.335227966308594 C 23.87622833251953 8.473472595214844 19.33542633056641 11.53517150878906 15.43529510498047 15.435302734375 C 11.53517150878906 19.33543395996094 8.473464965820312 23.87622833251953 6.335227966308594 28.93160247802734 C 4.122123718261719 34.16394424438477 3 39.72381591796875 3 45.4572868347168 C 3 51.19024658203125 4.122123718261719 56.75011825561523 6.335227966308594 61.98246002197266 C 8.473464965820312 67.03782653808594 11.53517150878906 71.57862854003906 15.43529510498047 75.478759765625 C 19.33542633056641 79.37889099121094 23.87622833251953 82.44058990478516 28.93159484863281 84.57883453369141 C 34.1639404296875 86.79193115234375 39.72381210327148 87.9140625 45.45676803588867 87.9140625 C 51.18972396850586 87.9140625 56.74959564208984 86.79193115234375 61.98194122314453 84.57883453369141 C 67.03730773925781 82.44058990478516 71.57810974121094 79.37889099121094 75.47824096679688 75.478759765625 C 79.37837219238281 71.57862854003906 82.44007110595703 67.03782653808594 84.57830810546875 61.98246002197266 C 86.79141235351562 56.75011825561523 87.91353607177734 51.19024658203125 87.91353607177734 45.4567756652832 C 87.91353607177734 39.72381591796875 86.79141235351562 34.16394424438477 84.57830810546875 28.93160247802734 C 82.44007110595703 23.87622833251953 79.37837219238281 19.33543395996094 75.47824096679688 15.435302734375 C 71.57810974121094 11.53517150878906 67.03730773925781 8.473472595214844 61.98194122314453 6.335227966308594 C 56.74959564208984 4.12213134765625 51.18972396850586 3 45.45676803588867 3 M 45.45676803588867 0 C 70.56185150146484 0 90.91353607177734 20.35169219970703 90.91353607177734 45.4567756652832 L 90.91353607177734 45.4572868347168 C 90.91353607177734 70.5623779296875 70.56185150146484 90.9140625 45.45676803588867 90.9140625 C 20.3516845703125 90.9140625 0 70.5623779296875 0 45.4572868347168 L 0 45.4567756652832 C 0 20.35169219970703 20.3516845703125 0 45.45676803588867 0 Z" stroke="none" fill="#fff"/>
        </g>
      </g>
    </g>
    <g id="welder_8734696_1_" data-name="welder_8734696 (1)" transform="translate(838.846 1960.347)">
      <g id="Grupo_1110038" data-name="Grupo 1110038" transform="translate(7.5 7.5)">
        <path id="Trazado_903235" data-name="Trazado 903235" d="M40.531,309.128l-6.5-1.136-5.45,3.369H26.383L21.2,307.869,14,309.128a7.851,7.851,0,0,0-6.5,7.734v12.094a1.428,1.428,0,0,0,1.428,1.428H45.6a1.428,1.428,0,0,0,1.428-1.428V316.862A7.851,7.851,0,0,0,40.531,309.128Z" transform="translate(-7.5 -273.427)" fill="#60b7ff"/>
        <path id="Trazado_903236" data-name="Trazado 903236" d="M213.489,310.3l-6.544-1.143-4.086,2.526a1.421,1.421,0,0,0,.553.224l7.211,1.26a7.851,7.851,0,0,1,6.5,7.734v9.227a1.428,1.428,0,0,1-1.428,1.428h2.867a1.428,1.428,0,0,0,1.428-1.428V318.034A7.851,7.851,0,0,0,213.489,310.3Z" transform="translate(-180.458 -274.568)" fill="#26a6fe"/>
        <path id="Trazado_903237" data-name="Trazado 903237" d="M87.25,310.18v12.849H83.81V310.781Z" transform="translate(-75.06 -275.473)" fill="#596c76"/>
        <path id="Trazado_903238" data-name="Trazado 903238" d="M249.38,310.781v12.248h-3.44V310.18Z" transform="translate(-218.599 -275.473)" fill="#596c76"/>
        <rect id="Rectángulo_402407" data-name="Rectángulo 402407" width="22.03" height="14.202" transform="translate(8.75 42.754)" fill="#8d9ca8"/>
        <rect id="Rectángulo_402408" data-name="Rectángulo 402408" width="2.867" height="14.234" transform="translate(27.914 42.754)" fill="#7a8c98"/>
        <path id="Trazado_903239" data-name="Trazado 903239" d="M146.333,233.9l-3.175,2.676-1.142.962h-2.195l-4.191-4.169a1.427,1.427,0,0,0,.2-.729V224.48h9.746v8.155A1.429,1.429,0,0,0,146.333,233.9Z" transform="translate(-120.938 -199.6)" fill="#ffcebf"/>
        <path id="Trazado_903240" data-name="Trazado 903240" d="M146.333,233.9l-4.317,3.638h-2.195l-4.191-4.169a1.427,1.427,0,0,0,.2-.729V224.48h9.747v8.155A1.429,1.429,0,0,0,146.333,233.9Z" transform="translate(-120.938 -199.6)" fill="#ffb09e"/>
        <path id="Trazado_903241" data-name="Trazado 903241" d="M201,234.143l-3.175,2.676a1.426,1.426,0,0,1-.447-1.038V224.76h2.867v8.123A1.429,1.429,0,0,0,201,234.143Z" transform="translate(-175.607 -199.848)" fill="#ffa78f"/>
        <path id="Trazado_903242" data-name="Trazado 903242" d="M166.068,37.067h-8.488a1.387,1.387,0,0,0-1.387,1.387v12.67H172.8V43.8A6.735,6.735,0,0,0,166.068,37.067Z" transform="translate(-139.142 -33.677)" fill="#d78878"/>
        <path id="Trazado_903243" data-name="Trazado 903243" d="M77.12,7.5H67.869A9.173,9.173,0,0,0,58.7,16.673v8.274H76.77A3.044,3.044,0,0,0,79.814,21.9V10.194A2.694,2.694,0,0,0,77.12,7.5Z" transform="translate(-52.826 -7.5)" fill="#d78878"/>
        <path id="Trazado_903244" data-name="Trazado 903244" d="M226.922,43.805v7.321h-2.867V43.805a6.736,6.736,0,0,0-6.735-6.735h2.867A6.736,6.736,0,0,1,226.922,43.805Z" transform="translate(-193.261 -33.679)" fill="#ca6e59"/>
        <path id="Trazado_903245" data-name="Trazado 903245" d="M194.539,7.5h-2.867a2.694,2.694,0,0,1,2.694,2.694V21.9a3.044,3.044,0,0,1-3.044,3.044h2.867a3.044,3.044,0,0,0,3.044-3.044V10.194A2.694,2.694,0,0,0,194.539,7.5Z" transform="translate(-170.244 -7.5)" fill="#ca6e59"/>
        <path id="Trazado_903246" data-name="Trazado 903246" d="M85.569,132.863H59.613a.917.917,0,0,1-.917-.917v-4.531a.917.917,0,0,1,.917-.917H85.569a.917.917,0,0,1,.917.917v4.531A.917.917,0,0,1,85.569,132.863Z" transform="translate(-52.826 -112.852)" fill="#596c76"/>
        <path id="Trazado_903247" data-name="Trazado 903247" d="M436.573,162.544h1.509a.917.917,0,0,1,.917.917v22.53a1.672,1.672,0,0,1-1.672,1.672h0a1.672,1.672,0,0,1-1.672-1.672v-22.53A.917.917,0,0,1,436.573,162.544Z" transform="translate(-386.562 -144.766)" fill="#596c76"/>
        <path id="Trazado_903248" data-name="Trazado 903248" d="M452.631,54.293l1.171-.518a.115.115,0,0,0,.06-.146l-.462-1.2a.115.115,0,0,1,.148-.148l1.2.462a.115.115,0,0,0,.146-.061l.518-1.171a.115.115,0,0,1,.21,0l.518,1.171a.115.115,0,0,0,.146.061l1.2-.462a.115.115,0,0,1,.148.148l-.462,1.2a.115.115,0,0,0,.061.146l1.171.518a.115.115,0,0,1,0,.21l-1.171.518a.115.115,0,0,0-.061.146l.462,1.2a.115.115,0,0,1-.148.148l-1.2-.462a.115.115,0,0,0-.146.061l-.518,1.171a.115.115,0,0,1-.21,0l-.518-1.171a.115.115,0,0,0-.146-.061l-1.2.462a.115.115,0,0,1-.148-.148l.462-1.2a.115.115,0,0,0-.06-.146l-1.171-.518A.115.115,0,0,1,452.631,54.293Z" transform="translate(-401.53 -46.408)" fill="#ffe177"/>
        <path id="Trazado_903249" data-name="Trazado 903249" d="M426.564,210.652h-2.158a2.127,2.127,0,0,1-2.127-2.127V193.062a.688.688,0,0,1,.688-.688H428a.688.688,0,0,1,.688.688v15.463A2.127,2.127,0,0,1,426.564,210.652Z" transform="translate(-374.718 -171.176)" fill="#8d9ca8"/>
        <path id="Trazado_903250" data-name="Trazado 903250" d="M441.688,192.374h-2.867a.688.688,0,0,1,.688.688v15.463a2.126,2.126,0,0,1-1.772,2.095,2.135,2.135,0,0,0,.354.032h2.158a2.127,2.127,0,0,0,2.127-2.127V193.062A.688.688,0,0,0,441.688,192.374Z" transform="translate(-388.404 -171.176)" fill="#7a8c98"/>
        <path id="Trazado_903251" data-name="Trazado 903251" d="M188.672,282.665l-1.76-1.76a.688.688,0,0,0-.973,0l-5.862,5.862a.688.688,0,0,0,0,.973l1.76,1.76a.688.688,0,0,0,.973,0l5.862-5.862A.688.688,0,0,0,188.672,282.665Z" transform="translate(-160.111 -249.377)" fill="#c4e2ff"/>
        <path id="Trazado_903252" data-name="Trazado 903252" d="M101.611,282.665l1.76-1.76a.688.688,0,0,1,.973,0l5.862,5.862a.688.688,0,0,1,0,.973l-1.76,1.76a.688.688,0,0,1-.973,0l-5.862-5.862A.688.688,0,0,1,101.611,282.665Z" transform="translate(-90.642 -249.377)" fill="#c4e2ff"/>
        <path id="Trazado_903253" data-name="Trazado 903253" d="M103.884,95.628H99.693a8.018,8.018,0,0,1-8.018-8.018V72.457A2.221,2.221,0,0,1,93.9,70.236h15.785a2.221,2.221,0,0,1,2.221,2.221V87.61A8.018,8.018,0,0,1,103.884,95.628Z" transform="translate(-82.023 -63.042)" fill="#8d9ca8"/>
        <path id="Trazado_903254" data-name="Trazado 903254" d="M177.838,72.461V87.614a8.018,8.018,0,0,1-8.018,8.017H166.15a8.018,8.018,0,0,0,8.019-8.017V72.461a2.221,2.221,0,0,0-2.221-2.221h3.669A2.221,2.221,0,0,1,177.838,72.461Z" transform="translate(-147.958 -63.046)" fill="#7a8c98"/>
        <path id="Trazado_903255" data-name="Trazado 903255" d="M121.676,131.821v-4.775h13.347v4.775a.917.917,0,0,1-.917.917H122.593A.917.917,0,0,1,121.676,131.821Z" transform="translate(-108.584 -113.338)" fill="#eaf6ff"/>
        <path id="Trazado_903256" data-name="Trazado 903256" d="M205.993,127.045v4.775a.917.917,0,0,1-.917.917h2.867a.917.917,0,0,0,.917-.917v-4.775Z" transform="translate(-182.421 -113.337)" fill="#d8ecfe"/>
      </g>
      <g id="Grupo_1110039" data-name="Grupo 1110039" transform="translate(7.5 7.5)">
        <path id="Trazado_903257" data-name="Trazado 903257" d="M35.5,311.18l5.031.88a7.85,7.85,0,0,1,6.5,7.734v12.094a1.428,1.428,0,0,1-1.428,1.428H8.928A1.428,1.428,0,0,1,7.5,331.887V319.794a7.85,7.85,0,0,1,6.5-7.734l5.031-.879" transform="translate(-7.5 -276.359)" fill="none" stroke="#000" stroke-linecap="round" stroke-linejoin="round" stroke-miterlimit="10" stroke-width="1"/>
        <path id="Trazado_903258" data-name="Trazado 903258" d="M242.87,37.08a6.734,6.734,0,0,1,6.672,6.734v7.321" transform="translate(-215.881 -33.688)" fill="none" stroke="#000" stroke-linecap="round" stroke-linejoin="round" stroke-miterlimit="10" stroke-width="1"/>
        <path id="Trazado_903259" data-name="Trazado 903259" d="M58.7,24.947V16.673A9.173,9.173,0,0,1,67.873,7.5h9.251a2.694,2.694,0,0,1,2.693,2.693V14.43" transform="translate(-52.829 -7.5)" fill="none" stroke="#000" stroke-linecap="round" stroke-linejoin="round" stroke-miterlimit="10" stroke-width="1"/>
        <path id="Trazado_903260" data-name="Trazado 903260" d="M268.08,126.5h2.864a.918.918,0,0,1,.917.917v4.53a.918.918,0,0,1-.917.917H268.08" transform="translate(-238.201 -112.855)" fill="none" stroke="#000" stroke-linecap="round" stroke-linejoin="round" stroke-miterlimit="10" stroke-width="1"/>
        <path id="Trazado_903261" data-name="Trazado 903261" d="M62.481,132.865H59.617a.917.917,0,0,1-.917-.917v-4.53a.917.917,0,0,1,.917-.917h2.864" transform="translate(-52.829 -112.855)" fill="none" stroke="#000" stroke-linecap="round" stroke-linejoin="round" stroke-miterlimit="10" stroke-width="1"/>
        <path id="Trazado_903262" data-name="Trazado 903262" d="M188.672,282.665l-1.76-1.76a.688.688,0,0,0-.973,0l-5.862,5.862a.688.688,0,0,0,0,.973l1.76,1.76a.688.688,0,0,0,.973,0l5.862-5.862A.688.688,0,0,0,188.672,282.665Z" transform="translate(-160.111 -249.377)" fill="none" stroke="#000" stroke-linecap="round" stroke-linejoin="round" stroke-miterlimit="10" stroke-width="1"/>
        <path id="Trazado_903263" data-name="Trazado 903263" d="M101.611,282.665l1.76-1.76a.688.688,0,0,1,.973,0l5.862,5.862a.688.688,0,0,1,0,.973l-1.76,1.76a.688.688,0,0,1-.973,0l-5.862-5.862A.688.688,0,0,1,101.611,282.665Z" transform="translate(-90.642 -249.377)" fill="none" stroke="#000" stroke-linecap="round" stroke-linejoin="round" stroke-miterlimit="10" stroke-width="1"/>
        <line id="Línea_587" data-name="Línea 587" y1="7.273" transform="translate(12.19 35.481)" fill="none" stroke="#000" stroke-linecap="round" stroke-linejoin="round" stroke-miterlimit="10" stroke-width="1"/>
        <line id="Línea_588" data-name="Línea 588" y2="7.446" transform="translate(8.75 35.308)" fill="none" stroke="#000" stroke-linecap="round" stroke-linejoin="round" stroke-miterlimit="10" stroke-width="1"/>
        <line id="Línea_589" data-name="Línea 589" y1="7.273" transform="translate(27.341 35.481)" fill="none" stroke="#000" stroke-linecap="round" stroke-linejoin="round" stroke-miterlimit="10" stroke-width="1"/>
        <line id="Línea_590" data-name="Línea 590" y1="7.446" transform="translate(30.781 35.308)" fill="none" stroke="#000" stroke-linecap="round" stroke-linejoin="round" stroke-miterlimit="10" stroke-width="1"/>
        <line id="Línea_591" data-name="Línea 591" y1="4.241" transform="translate(8.75 52.715)" fill="none" stroke="#000" stroke-linecap="round" stroke-linejoin="round" stroke-miterlimit="10" stroke-width="1"/>
        <path id="Trazado_903264" data-name="Trazado 903264" d="M83.81,386.308V380.36h22.031v14.2" transform="translate(-75.06 -337.606)" fill="none" stroke="#000" stroke-linecap="round" stroke-linejoin="round" stroke-miterlimit="10" stroke-width="1"/>
        <path id="Trazado_903265" data-name="Trazado 903265" d="M439.476,351.04v1.833a1.672,1.672,0,1,1-3.344,0V351.04" transform="translate(-386.983 -311.648)" fill="none" stroke="#000" stroke-linecap="round" stroke-linejoin="round" stroke-miterlimit="10" stroke-width="1"/>
        <path id="Trazado_903266" data-name="Trazado 903266" d="M436.132,165.96v-2.5a.918.918,0,0,1,.917-.917h1.509a.918.918,0,0,1,.917.917v2.5" transform="translate(-386.983 -144.762)" fill="none" stroke="#000" stroke-linecap="round" stroke-linejoin="round" stroke-miterlimit="10" stroke-width="1"/>
        <path id="Trazado_903267" data-name="Trazado 903267" d="M450.71,102.982V97.474a.918.918,0,0,1,.2-.577l1-1.237" transform="translate(-399.889 -85.551)" fill="none" stroke="#000" stroke-linecap="round" stroke-linejoin="round" stroke-miterlimit="10" stroke-width="1"/>
        <path id="Trazado_903268" data-name="Trazado 903268" d="M453.1,54.293l1.171-.518a.115.115,0,0,0,.06-.146l-.462-1.2a.115.115,0,0,1,.148-.148l1.2.462a.115.115,0,0,0,.146-.061l.518-1.171a.115.115,0,0,1,.21,0l.518,1.171a.115.115,0,0,0,.146.061l1.2-.462a.115.115,0,0,1,.148.148l-.462,1.2a.115.115,0,0,0,.061.146l1.171.518a.115.115,0,0,1,0,.21l-1.171.518a.115.115,0,0,0-.061.146l.462,1.2a.115.115,0,0,1-.148.148l-1.2-.462a.115.115,0,0,0-.146.061l-.518,1.171a.115.115,0,0,1-.21,0l-.518-1.171a.115.115,0,0,0-.146-.061l-1.2.462a.115.115,0,0,1-.148-.148l.462-1.2a.115.115,0,0,0-.06-.146L453.1,54.5A.115.115,0,0,1,453.1,54.293Z" transform="translate(-401.947 -46.408)" fill="none" stroke="#000" stroke-linecap="round" stroke-linejoin="round" stroke-miterlimit="10" stroke-width="1"/>
        <path id="Trazado_903269" data-name="Trazado 903269" d="M429.162,202.455v6.067a2.128,2.128,0,0,1-2.127,2.127h-2.158a2.128,2.128,0,0,1-2.127-2.127V193.058a.689.689,0,0,1,.688-.688h5.036a.689.689,0,0,1,.688.688v5.385" transform="translate(-375.136 -171.172)" fill="none" stroke="#000" stroke-linecap="round" stroke-linejoin="round" stroke-miterlimit="10" stroke-width="1"/>
        <path id="Trazado_903270" data-name="Trazado 903270" d="M414.72,395.7v-1.886a1.72,1.72,0,0,0-1.72-1.72h-1.221a1.72,1.72,0,0,1-1.72-1.72h0a1.72,1.72,0,0,1,1.72-1.72h5.882a1.72,1.72,0,0,0,1.72-1.72h0a1.72,1.72,0,0,0-1.72-1.72H416.44a1.72,1.72,0,0,1-1.72-1.72v-1.886" transform="translate(-363.9 -338.711)" fill="none" stroke="#000" stroke-linecap="round" stroke-linejoin="round" stroke-miterlimit="10" stroke-width="1"/>
        <path id="Trazado_903271" data-name="Trazado 903271" d="M103.884,95.628H99.693a8.018,8.018,0,0,1-8.018-8.018V72.457A2.221,2.221,0,0,1,93.9,70.236h15.785a2.221,2.221,0,0,1,2.221,2.221V87.61A8.018,8.018,0,0,1,103.884,95.628Z" transform="translate(-82.023 -63.042)" fill="none" stroke="#000" stroke-linecap="round" stroke-linejoin="round" stroke-miterlimit="10" stroke-width="1"/>
        <path id="Trazado_903272" data-name="Trazado 903272" d="M121.676,131.821v-4.775h13.347v4.775a.917.917,0,0,1-.917.917H122.593A.917.917,0,0,1,121.676,131.821Z" transform="translate(-108.584 -113.338)" fill="none" stroke="#000" stroke-linecap="round" stroke-linejoin="round" stroke-miterlimit="10" stroke-width="1"/>
      </g>
    </g>
  </g>
</svg>
