<svg xmlns="http://www.w3.org/2000/svg" xmlns:xlink="http://www.w3.org/1999/xlink" width="108.914" height="108.914" viewBox="0 0 108.914 108.914">
  <defs>
    <filter id="Trazado_874925" x="0" y="0" width="108.914" height="108.914" filterUnits="userSpaceOnUse">
      <feOffset dy="3" input="SourceAlpha"/>
      <feGaussianBlur stdDeviation="3" result="blur"/>
      <feFlood flood-opacity="0.161"/>
      <feComposite operator="in" in2="blur"/>
      <feComposite in="SourceGraphic"/>
    </filter>
  </defs>
  <g id="Grupo_1110045" data-name="Grupo 1110045" transform="translate(-815.427 -2496.484)">
    <g transform="matrix(1, 0, 0, 1, 815.43, 2496.48)" filter="url(#Trazado_874925)">
      <g id="Trazado_874925-2" data-name="Trazado 874925" transform="translate(9 6)" fill="#fecfb5">
        <path d="M 45.45676803588867 89.41407012939453 C 39.52198028564453 89.41407012939453 33.76551818847656 88.25206756591797 28.34726715087891 85.96034240722656 C 23.11311721801758 83.74648284912109 18.41204261779785 80.57682800292969 14.37464332580566 76.5394287109375 C 10.33724308013916 72.50202941894531 7.167593002319336 67.80095672607422 4.953730583190918 62.56679534912109 C 2.662005424499512 57.14855575561523 1.500005483627319 51.39208221435547 1.500005483627319 45.45729446411133 C 1.500005483627319 39.52198028564453 2.662005424499512 33.76551818847656 4.953730583190918 28.34726905822754 C 7.167593002319336 23.11310577392578 10.33724308013916 18.41203117370605 14.37464332580566 14.37464332580566 C 18.41204261779785 10.33724403381348 23.11311721801758 7.167593955993652 28.34726715087891 4.953731060028076 C 33.76551818847656 2.662006139755249 39.52198028564453 1.500006198883057 45.45676803588867 1.500006198883057 C 51.39155578613281 1.500006198883057 57.14802932739258 2.662006139755249 62.56626892089844 4.953731060028076 C 67.80043029785156 7.167593955993652 72.50150299072266 10.33724403381348 76.53890228271484 14.37464332580566 C 80.57630920410156 18.41203117370605 83.74595642089844 23.11310577392578 85.95981597900391 28.34726905822754 C 88.25154113769531 33.76551818847656 89.41354370117188 39.52198028564453 89.41354370117188 45.45676803588867 C 89.41354370117188 51.39208221435547 88.25154113769531 57.14855575561523 85.95981597900391 62.56679534912109 C 83.74595642089844 67.80095672607422 80.57630920410156 72.50202941894531 76.53890228271484 76.5394287109375 C 72.50150299072266 80.57682800292969 67.80043029785156 83.74648284912109 62.56626892089844 85.96034240722656 C 57.14802932739258 88.25206756591797 51.39155578613281 89.41407012939453 45.45676803588867 89.41407012939453 Z" stroke="none"/>
        <path d="M 45.45676803588867 3 C 39.72381210327148 3 34.1639404296875 4.12213134765625 28.93159484863281 6.335227966308594 C 23.87622833251953 8.473472595214844 19.33542633056641 11.53517150878906 15.43529510498047 15.435302734375 C 11.53517150878906 19.33543395996094 8.473464965820312 23.87622833251953 6.335227966308594 28.93160247802734 C 4.122123718261719 34.16394424438477 3 39.72381591796875 3 45.4572868347168 C 3 51.19024658203125 4.122123718261719 56.75011825561523 6.335227966308594 61.98246002197266 C 8.473464965820312 67.03782653808594 11.53517150878906 71.57862854003906 15.43529510498047 75.478759765625 C 19.33542633056641 79.37889099121094 23.87622833251953 82.44058990478516 28.93159484863281 84.57883453369141 C 34.1639404296875 86.79193115234375 39.72381210327148 87.9140625 45.45676803588867 87.9140625 C 51.18972396850586 87.9140625 56.74959564208984 86.79193115234375 61.98194122314453 84.57883453369141 C 67.03730773925781 82.44058990478516 71.57810974121094 79.37889099121094 75.47824096679688 75.478759765625 C 79.37837219238281 71.57862854003906 82.44007110595703 67.03782653808594 84.57830810546875 61.98246002197266 C 86.79141235351562 56.75011825561523 87.91353607177734 51.19024658203125 87.91353607177734 45.4567756652832 C 87.91353607177734 39.72381591796875 86.79141235351562 34.16394424438477 84.57830810546875 28.93160247802734 C 82.44007110595703 23.87622833251953 79.37837219238281 19.33543395996094 75.47824096679688 15.435302734375 C 71.57810974121094 11.53517150878906 67.03730773925781 8.473472595214844 61.98194122314453 6.335227966308594 C 56.74959564208984 4.12213134765625 51.18972396850586 3 45.45676803588867 3 M 45.45676803588867 0 C 70.56185150146484 0 90.91353607177734 20.35169219970703 90.91353607177734 45.4567756652832 L 90.91353607177734 45.4572868347168 C 90.91353607177734 70.5623779296875 70.56185150146484 90.9140625 45.45676803588867 90.9140625 C 20.3516845703125 90.9140625 0 70.5623779296875 0 45.4572868347168 L 0 45.4567756652832 C 0 20.35169219970703 20.3516845703125 0 45.45676803588867 0 Z" stroke="none" fill="#fff"/>
      </g>
    </g>
    <g id="Layer_29" data-name="Layer 29" transform="translate(841.315 2520.373)">
      <path id="Trazado_903307" data-name="Trazado 903307" d="M9,2H41.567V46.566H9Z" transform="translate(-0.143 -0.143)" fill="#e2e7f6"/>
      <path id="Trazado_903308" data-name="Trazado 903308" d="M49.567,8H23.856L17,14.856V54.28H49.567Z" transform="translate(-1.287 -1.001)" fill="#e2e7f6"/>
      <path id="Trazado_903309" data-name="Trazado 903309" d="M17,50.852H46.139V8H23.856L17,14.856Z" transform="translate(-1.287 -1.001)" fill="#f2f2f2"/>
      <path id="Trazado_903310" data-name="Trazado 903310" d="M23.856,8v6.856H17" transform="translate(-1.287 -1.001)" fill="#c8cded"/>
      <ellipse id="Elipse_11758" data-name="Elipse 11758" cx="8" cy="7.5" rx="8" ry="7.5" transform="translate(23.569 10.566)" fill="#4d8c28"/>
      <path id="Trazado_903311" data-name="Trazado 903311" d="M40.716,18.858a7.706,7.706,0,0,0-3.408-6.4,7.713,7.713,0,0,0-6.9,13.659,7.7,7.7,0,0,0,10.3-7.258Z" transform="translate(-2.719 -1.575)" fill="#559b2d"/>
      <path id="Trazado_903312" data-name="Trazado 903312" d="M30,21.285l3.428,3.428,6-6L37.713,17l-4.285,4.285-1.714-1.714Z" transform="translate(-3.145 -2.287)" fill="#f2f2f2"/>
      <path id="Trazado_903313" data-name="Trazado 903313" d="M21,33H46.711V54.426H21Z" transform="translate(-1.859 -4.575)" fill="#f0ae42"/>
      <path id="Trazado_903314" data-name="Trazado 903314" d="M21,33H44.14V50.141H21Z" transform="translate(-1.859 -4.575)" fill="#f9d266"/>
      <path id="Trazado_903315" data-name="Trazado 903315" d="M25,38h5.142v5.142H25Z" transform="translate(-2.43 -5.29)" fill="#559b2d"/>
      <path id="Trazado_903316" data-name="Trazado 903316" d="M0,0H6.06V1.714H0Z" transform="translate(24.529 34.675) rotate(-45)" fill="#474747"/>
      <path id="Trazado_903317" data-name="Trazado 903317" d="M25,48h5.142v5.142H25Z" transform="translate(-2.43 -6.719)" fill="#559b2d"/>
      <g id="Grupo_1110041" data-name="Grupo 1110041" transform="translate(24.528 31.853)">
        <path id="Trazado_903318" data-name="Trazado 903318" d="M0,0H6.06V1.714H0Z" transform="translate(0 11.391) rotate(-45)" fill="#474747"/>
        <path id="Trazado_903319" data-name="Trazado 903319" d="M34,41H46v1.714H34Z" transform="translate(-28.245 -37.572)" fill="#474747"/>
        <path id="Trazado_903320" data-name="Trazado 903320" d="M38,37h8.57v1.714H38Z" transform="translate(-28.817 -37)" fill="#474747"/>
        <path id="Trazado_903321" data-name="Trazado 903321" d="M34,51H46v1.714H34Z" transform="translate(-28.245 -39.002)" fill="#474747"/>
        <path id="Trazado_903322" data-name="Trazado 903322" d="M38,47h8.57v1.714H38Z" transform="translate(-28.817 -38.43)" fill="#474747"/>
      </g>
      <path id="Trazado_903323" data-name="Trazado 903323" d="M48.281,6.142h-6V1.857A.857.857,0,0,0,41.424,1H8.857A.857.857,0,0,0,8,1.857V46.423a.857.857,0,0,0,.857.857h6v6a.857.857,0,0,0,.857.857H48.281a.857.857,0,0,0,.857-.857V7A.857.857,0,0,0,48.281,6.142ZM9.714,45.566V2.714H40.567V6.142h-18a.857.857,0,0,0-.606.251L15.107,13.25a.857.857,0,0,0-.251.606v31.71Zm12-36.5V13h-3.93ZM47.424,52.422H16.57V14.713h6a.857.857,0,0,0,.857-.857v-6h24Z"/>
      <path id="Trazado_903324" data-name="Trazado 903324" d="M26,19.57A8.57,8.57,0,1,0,34.57,11,8.57,8.57,0,0,0,26,19.57Zm8.57-6.856a6.856,6.856,0,1,1-6.856,6.856,6.856,6.856,0,0,1,6.856-6.856Z" transform="translate(-2.573 -1.43)"/>
      <path id="Trazado_903325" data-name="Trazado 903325" d="M29.251,21.748l3.428,3.428a.857.857,0,0,0,1.212,0l6-6a.857.857,0,0,0,0-1.212l-1.714-1.714a.857.857,0,0,0-1.212,0L33.285,19.93l-1.108-1.108a.857.857,0,0,0-1.212,0l-1.714,1.714a.857.857,0,0,0,0,1.212Zm2.32-1.108,1.108,1.108a.857.857,0,0,0,1.212,0l3.679-3.679.5.5-4.787,4.787-2.216-2.216Z" transform="translate(-3.002 -2.145)"/>
      <path id="Trazado_903326" data-name="Trazado 903326" d="M20,32.857V54.283a.857.857,0,0,0,.857.857H46.568a.857.857,0,0,0,.857-.857V32.857A.857.857,0,0,0,46.568,32H20.857A.857.857,0,0,0,20,32.857Zm1.714.857h24V53.426h-24Z" transform="translate(-1.716 -4.432)"/>
      <path id="Trazado_903327" data-name="Trazado 903327" d="M29.644,36.756H24.857a.857.857,0,0,0-.857.857v5.142a.857.857,0,0,0,.857.857H30a.857.857,0,0,0,.857-.857V37.968L32.319,36.5l-1.212-1.212Zm-.5,5.142H25.714V38.47H27.93l-1.108,1.108,1.212,1.212,1.108-1.108Z" transform="translate(-2.287 -4.903)"/>
      <path id="Trazado_903328" data-name="Trazado 903328" d="M31.107,45.293l-1.463,1.463H24.857a.857.857,0,0,0-.857.857v5.142a.857.857,0,0,0,.857.857H30a.857.857,0,0,0,.857-.857V47.968L32.319,46.5ZM29.142,51.9H25.714V48.47H27.93l-1.108,1.108,1.212,1.212,1.108-1.108Z" transform="translate(-2.287 -6.332)"/>
      <path id="Trazado_903329" data-name="Trazado 903329" d="M34,41H46v1.714H34Z" transform="translate(-3.717 -5.719)"/>
      <path id="Trazado_903330" data-name="Trazado 903330" d="M38,37h8.57v1.714H38Z" transform="translate(-4.289 -5.147)"/>
      <path id="Trazado_903331" data-name="Trazado 903331" d="M34,51H46v1.714H34Z" transform="translate(-3.717 -7.148)"/>
      <path id="Trazado_903332" data-name="Trazado 903332" d="M38,47h8.57v1.714H38Z" transform="translate(-4.289 -6.576)"/>
    </g>
  </g>
</svg>
