<svg xmlns="http://www.w3.org/2000/svg" width="92" height="92" viewBox="0 0 92 92">
  <g id="Grupo_1110036" data-name="Grupo 1110036" transform="translate(-209.781 -435)">
    <g id="Elipse_11719" data-name="Elipse 11719" transform="translate(209.781 435)" fill="#f3fbf6" stroke="#67997c" stroke-width="3">
      <circle cx="46" cy="46" r="46" stroke="none"/>
      <circle cx="46" cy="46" r="44.5" fill="none"/>
    </g>
    <g id="welder_9439182" transform="translate(213.982 449.646)">
      <path id="Trazado_899670" data-name="Trazado 899670" d="M55.175,333.17l11.56,4.5a5.747,5.747,0,0,1,3.631,5.481v7.016a2.859,2.859,0,0,1-2.776,2.916H27.276a2.859,2.859,0,0,1-2.776-2.916v-7.016a5.747,5.747,0,0,1,3.631-5.481l11.56-4.5a5,5,0,0,1,4.626.433l3.115,1.9,3.115-1.9a5,5,0,0,1,4.626-.433Z" transform="translate(-7.681 -293.905)" fill="#4e454d" fill-rule="evenodd"/>
      <path id="Trazado_899671" data-name="Trazado 899671" d="M99.8,433.781h28.227v-7.039a2.554,2.554,0,0,0-2.542-2.542H102.342a2.554,2.554,0,0,0-2.542,2.542Z" transform="translate(-74.162 -374.605)" fill="#ffaa5a" fill-rule="evenodd"/>
      <path id="Trazado_899672" data-name="Trazado 899672" d="M202.2,465.1a2.327,2.327,0,0,1,2.413,2.2v2.588H199.8v-2.577A2.31,2.31,0,0,1,202.2,465.1Z" transform="translate(-162.449 -410.714)" fill="#007eb6" fill-rule="evenodd"/>
      <path id="Trazado_899673" data-name="Trazado 899673" d="M402,302.3h3.373v14.43H402Z" transform="translate(-340.967 -266.982)" fill="#c24441" fill-rule="evenodd"/>
      <path id="Trazado_899674" data-name="Trazado 899674" d="M448.079,225.264l-1.546,1.347a2.386,2.386,0,0,1-3.045-.012,1.726,1.726,0,0,1-.012-2.67l.023-.023a2.386,2.386,0,0,1,3.045.012Z" transform="translate(-377.032 -197.29)" fill="#ffc263" fill-rule="evenodd"/>
      <path id="Trazado_899675" data-name="Trazado 899675" d="M165.714,333.4a8.408,8.408,0,0,1-16.714,0l.609-.234a5,5,0,0,1,4.626.433l3.115,1.9,3.115-1.9a5.037,5.037,0,0,1,4.626-.433Z" transform="translate(-117.599 -293.905)" fill="#3f383e" fill-rule="evenodd"/>
      <path id="Trazado_899676" data-name="Trazado 899676" d="M162.6,238.8h13.516v10.705a6.758,6.758,0,0,1-13.516,0Z" transform="translate(-129.606 -210.919)" fill="#fbbd80" fill-rule="evenodd"/>
      <path id="Trazado_899677" data-name="Trazado 899677" d="M110.321,429.161a3.224,3.224,0,0,1-3.221-3.209v-1.007a2.5,2.5,0,0,1,1.675-.633h4.755v1.651A3.2,3.2,0,0,1,110.321,429.161Zm23.284-4.228a2.494,2.494,0,0,0-1.675-.632h-4.755v1.651a3.209,3.209,0,1,0,6.418,0v-1.019Z" transform="translate(-80.607 -374.693)" fill="#e69951" fill-rule="evenodd"/>
      <path id="Trazado_899678" data-name="Trazado 899678" d="M116.413,350.13a2.417,2.417,0,0,0,2.413-2.413V335.7a.491.491,0,0,0-.117.047L114,337.562v10.166A2.414,2.414,0,0,0,116.413,350.13Z" transform="translate(-86.698 -296.47)" fill="#ffc263" fill-rule="evenodd"/>
      <path id="Trazado_899679" data-name="Trazado 899679" d="M287.813,350.13a2.417,2.417,0,0,1-2.413-2.413V335.7a.491.491,0,0,1,.117.047l4.7,1.827V347.74A2.394,2.394,0,0,1,287.813,350.13Z" transform="translate(-238.023 -296.47)" fill="#ffc263" fill-rule="evenodd"/>
      <path id="Trazado_899680" data-name="Trazado 899680" d="M93.9,25.761h29.585V11.987A2.794,2.794,0,0,0,120.7,9.2h-1.405V6.611a.577.577,0,0,0-.223-.457.558.558,0,0,0-.5-.105c-5.552,1.359-11.759.8-17.615.8A2.876,2.876,0,0,0,98.14,9.188H96.688A2.794,2.794,0,0,0,93.9,11.975Z" transform="translate(-68.953 -5.411)" fill="#323e4b" fill-rule="evenodd"/>
      <path id="Trazado_899681" data-name="Trazado 899681" d="M106.4,161.385H76.942a2.342,2.342,0,1,1,0-4.685H106.4a2.342,2.342,0,1,1,0,4.685Z" transform="translate(-51.913 -138.435)" fill="#fbbd80" fill-rule="evenodd"/>
      <path id="Trazado_899682" data-name="Trazado 899682" d="M176.116,247.465a13.639,13.639,0,0,1-13.516,0V242.3h13.516Z" transform="translate(-129.606 -214.009)" fill="#e2aa73" fill-rule="evenodd"/>
      <path id="Trazado_899683" data-name="Trazado 899683" d="M116.19,58.1h20.883a2.009,2.009,0,0,1,2,2v12.79a12.438,12.438,0,1,1-24.877,0v-12.8A1.989,1.989,0,0,1,116.19,58.1Z" transform="translate(-86.874 -51.383)" fill="#d74b48" fill-rule="evenodd"/>
      <path id="Trazado_899684" data-name="Trazado 899684" d="M145.925,109h15.8a.927.927,0,0,1,.925.925v8.421a.927.927,0,0,1-.925.925h-15.8a.927.927,0,0,1-.925-.925v-8.421A.92.92,0,0,1,145.925,109Z" transform="translate(-114.068 -96.322)" fill="#008cca" fill-rule="evenodd"/>
      <path id="Trazado_899685" data-name="Trazado 899685" d="M416.4,302.3h1.687v14.43H416.4Z" transform="translate(-353.68 -266.982)" fill="#d74b48" fill-rule="evenodd"/>
      <path id="Trazado_899686" data-name="Trazado 899686" d="M386.918,417.1H390.9a2.324,2.324,0,0,1,2.319,2.319v2.167A2.324,2.324,0,0,1,390.9,423.9h-3.982a.815.815,0,0,1-.82-.82v-5.142A.82.82,0,0,1,386.918,417.1Z" transform="translate(-326.927 -368.336)" fill="#fbbd80" fill-rule="evenodd"/>
      <path id="Trazado_899687" data-name="Trazado 899687" d="M386.918,417.1h2.741v6.793h-2.741a.815.815,0,0,1-.82-.82v-5.142A.817.817,0,0,1,386.918,417.1Z" transform="translate(-326.927 -368.336)" fill="#e2aa73" fill-rule="evenodd"/>
      <path id="Trazado_899688" data-name="Trazado 899688" d="M393.37,289h2.647a1.569,1.569,0,1,1,0,3.139H393.37a1.569,1.569,0,1,1,0-3.139Z" transform="translate(-331.962 -255.24)" fill="#e1e1e1" fill-rule="evenodd"/>
      <path id="Trazado_899689" data-name="Trazado 899689" d="M210.613,468.3a2.289,2.289,0,0,1,.4.035,2.166,2.166,0,0,1,1.019,1.8v2.577H208.2V470.5A2.327,2.327,0,0,1,210.613,468.3Z" transform="translate(-169.865 -413.539)" fill="#008cca" fill-rule="evenodd"/>
      <path id="Trazado_899690" data-name="Trazado 899690" d="M127.6,426.82a.82.82,0,1,1,.82.82A.815.815,0,0,1,127.6,426.82Zm20.075,0a.82.82,0,1,1,.82.82A.815.815,0,0,1,147.675,426.82Z" transform="translate(-98.706 -376.194)" fill="#3f383e"/>
      <path id="Trazado_899691" data-name="Trazado 899691" d="M28.131,354.27a5.747,5.747,0,0,0-3.631,5.481v7.016a2.859,2.859,0,0,0,2.776,2.916h2.366V362.5a5.747,5.747,0,0,1,3.631-5.481l1.722-.668V351.6Z" transform="translate(-7.681 -310.508)" fill="#3f383e" fill-rule="evenodd"/>
      <path id="Trazado_899692" data-name="Trazado 899692" d="M114,337.562v4.755l4.814-1.874V335.7a.491.491,0,0,0-.117.047Z" transform="translate(-86.698 -296.47)" fill="#ffaa5a" fill-rule="evenodd"/>
      <path id="Trazado_899693" data-name="Trazado 899693" d="M148.935,114.587V109h-3.01a.927.927,0,0,0-.925.925v8.421a.927.927,0,0,0,.925.925h3.092a11.616,11.616,0,0,1-.082-1.441v-3.244Z" transform="translate(-114.068 -96.322)" fill="#007eb6" fill-rule="evenodd"/>
      <path id="Trazado_899694" data-name="Trazado 899694" d="M118.641,64.062h3.01V58.1H116.1a2.009,2.009,0,0,0-2,2V71.745a23.791,23.791,0,0,0,.082,2.588,12.475,12.475,0,0,0,5.6,9,12.319,12.319,0,0,0,6.758,2.015,12.517,12.517,0,0,0,3.771-.586,12.511,12.511,0,0,1-8.585-10.412h-3.092a.927.927,0,0,1-.925-.925V65A.94.94,0,0,1,118.641,64.062Z" transform="translate(-86.783 -51.383)" fill="#c24441" fill-rule="evenodd"/>
      <path id="Trazado_899695" data-name="Trazado 899695" d="M243.422,112.514l-3.9,6.758H236.5L242.426,109h.07a.927.927,0,0,1,.925.925Z" transform="translate(-194.851 -96.322)" fill="#7ecefd"/>
      <path id="Trazado_899696" data-name="Trazado 899696" d="M201.248,109l-5.926,10.272H192.3L198.226,109Z" transform="translate(-155.828 -96.322)" fill="#7ecefd"/>
      <path id="Trazado_899697" data-name="Trazado 899697" d="M155.639,78.12a.82.82,0,0,1,1.64,0v.012a.815.815,0,0,1-.82.82A.825.825,0,0,1,155.639,78.12Zm-2.167,16.409a.82.82,0,0,1,1.64,0v1.558a.82.82,0,0,1-1.64,0Zm-3.326,0a.82.82,0,0,1,1.64,0v1.558a.82.82,0,0,1-1.64,0Zm-3.326,0a.82.82,0,1,1,1.64,0v1.558a.82.82,0,1,1-1.64,0Zm-3.326,0a.82.82,0,0,1,1.64,0v1.558a.82.82,0,0,1-1.64,0Zm-3.338,0a.82.82,0,1,1,1.64,0v1.558a.82.82,0,1,1-1.64,0ZM138,78.12a.82.82,0,0,1,1.64,0v.012a.815.815,0,0,1-.82.82A.825.825,0,0,1,138,78.12Z" transform="translate(-107.888 -68.335)" fill="#454545"/>
      <g id="Grupo_1109139" data-name="Grupo 1109139" transform="translate(16.819 0.618)">
        <path id="Trazado_899698" data-name="Trazado 899698" d="M55.175,333.082l13.6,5.036c2.319.9,2.026,9.206,2.3,11.947a2.751,2.751,0,0,1-2.776,2.916H27.276a2.859,2.859,0,0,1-2.776-2.916v-7.016a5.747,5.747,0,0,1,3.631-5.481l11.56-4.5a5,5,0,0,1,4.626.433l3.115,1.9,3.115-1.9A5.137,5.137,0,0,1,55.175,333.082Z" transform="translate(-24.5 -294.435)" fill="#4e454d" fill-rule="evenodd"/>
        <path id="Trazado_899699" data-name="Trazado 899699" d="M99.8,433.781h28.227v-7.039a2.554,2.554,0,0,0-2.542-2.542H102.342a2.554,2.554,0,0,0-2.542,2.542Z" transform="translate(-90.981 -375.222)" fill="#ffaa5a" fill-rule="evenodd"/>
        <path id="Trazado_899700" data-name="Trazado 899700" d="M202.2,465.1a2.327,2.327,0,0,1,2.413,2.2v2.588H199.8v-2.577A2.31,2.31,0,0,1,202.2,465.1Z" transform="translate(-179.268 -411.332)" fill="#007eb6" fill-rule="evenodd"/>
        <path id="Trazado_899701" data-name="Trazado 899701" d="M402,302.3h3.373v14.43H402Z" transform="translate(-357.786 -267.6)" fill="#c24441" fill-rule="evenodd"/>
        <path id="Trazado_899702" data-name="Trazado 899702" d="M448.079,225.264l-1.546,1.347a2.386,2.386,0,0,1-3.045-.012,1.726,1.726,0,0,1-.012-2.67l.023-.023a2.386,2.386,0,0,1,3.045.012Z" transform="translate(-393.851 -197.908)" fill="#ffc263" fill-rule="evenodd"/>
        <path id="Trazado_899703" data-name="Trazado 899703" d="M165.714,333.4a8.408,8.408,0,0,1-16.714,0l.609-.234a5,5,0,0,1,4.626.433l3.115,1.9,3.115-1.9a5.037,5.037,0,0,1,4.626-.433Z" transform="translate(-134.418 -294.523)" fill="#3f383e" fill-rule="evenodd"/>
        <path id="Trazado_899704" data-name="Trazado 899704" d="M162.6,238.8h13.516v10.705a6.758,6.758,0,0,1-13.516,0Z" transform="translate(-146.425 -211.537)" fill="#fbbd80" fill-rule="evenodd"/>
        <path id="Trazado_899705" data-name="Trazado 899705" d="M110.321,429.161a3.224,3.224,0,0,1-3.221-3.209v-1.007a2.5,2.5,0,0,1,1.675-.633h4.755v1.651A3.2,3.2,0,0,1,110.321,429.161Zm23.284-4.228a2.494,2.494,0,0,0-1.675-.632h-4.755v1.651a3.209,3.209,0,1,0,6.418,0v-1.019Z" transform="translate(-97.426 -375.311)" fill="#e69951" fill-rule="evenodd"/>
        <path id="Trazado_899706" data-name="Trazado 899706" d="M116.413,350.13a2.417,2.417,0,0,0,2.413-2.413V335.7a.491.491,0,0,0-.117.047L114,337.562v10.166A2.414,2.414,0,0,0,116.413,350.13Z" transform="translate(-103.517 -297.088)" fill="#ffc263" fill-rule="evenodd"/>
        <path id="Trazado_899707" data-name="Trazado 899707" d="M287.813,350.13a2.417,2.417,0,0,1-2.413-2.413V335.7a.491.491,0,0,1,.117.047l4.7,1.827V347.74A2.394,2.394,0,0,1,287.813,350.13Z" transform="translate(-254.842 -297.088)" fill="#ffc263" fill-rule="evenodd"/>
        <path id="Trazado_899708" data-name="Trazado 899708" d="M93.9,25.761h29.585V11.987A2.794,2.794,0,0,0,120.7,9.2h-1.405V6.611a.577.577,0,0,0-.223-.457.558.558,0,0,0-.5-.105c-5.552,1.359-11.759.8-17.615.8A2.876,2.876,0,0,0,98.14,9.188H96.688A2.794,2.794,0,0,0,93.9,11.975Z" transform="translate(-85.772 -6.029)" fill="#323e4b" fill-rule="evenodd"/>
        <path id="Trazado_899709" data-name="Trazado 899709" d="M106.4,161.385H76.942a2.342,2.342,0,1,1,0-4.685H106.4a2.342,2.342,0,1,1,0,4.685Z" transform="translate(-68.732 -139.053)" fill="#fbbd80" fill-rule="evenodd"/>
        <path id="Trazado_899710" data-name="Trazado 899710" d="M176.116,247.465a13.639,13.639,0,0,1-13.516,0V242.3h13.516Z" transform="translate(-146.425 -214.627)" fill="#e2aa73" fill-rule="evenodd"/>
        <path id="Trazado_899711" data-name="Trazado 899711" d="M116.19,58.1h20.883a2.009,2.009,0,0,1,2,2v12.79a12.438,12.438,0,1,1-24.877,0v-12.8A1.989,1.989,0,0,1,116.19,58.1Z" transform="translate(-103.693 -52.001)" fill="#d74b48" fill-rule="evenodd"/>
        <path id="Trazado_899712" data-name="Trazado 899712" d="M145.925,109h15.8a.927.927,0,0,1,.925.925v8.421a.927.927,0,0,1-.925.925h-15.8a.927.927,0,0,1-.925-.925v-8.421A.92.92,0,0,1,145.925,109Z" transform="translate(-130.887 -96.94)" fill="#008cca" fill-rule="evenodd"/>
        <path id="Trazado_899713" data-name="Trazado 899713" d="M416.4,302.3h1.687v14.43H416.4Z" transform="translate(-370.499 -267.6)" fill="#d74b48" fill-rule="evenodd"/>
        <path id="Trazado_899714" data-name="Trazado 899714" d="M386.918,417.1H390.9a2.324,2.324,0,0,1,2.319,2.319v2.167A2.324,2.324,0,0,1,390.9,423.9h-3.982a.815.815,0,0,1-.82-.82v-5.142A.82.82,0,0,1,386.918,417.1Z" transform="translate(-343.746 -368.954)" fill="#fbbd80" fill-rule="evenodd"/>
        <path id="Trazado_899715" data-name="Trazado 899715" d="M386.918,417.1h2.741v6.793h-2.741a.815.815,0,0,1-.82-.82v-5.142A.817.817,0,0,1,386.918,417.1Z" transform="translate(-343.746 -368.954)" fill="#e2aa73" fill-rule="evenodd"/>
        <path id="Trazado_899716" data-name="Trazado 899716" d="M393.37,289h2.647a1.569,1.569,0,1,1,0,3.139H393.37a1.569,1.569,0,1,1,0-3.139Z" transform="translate(-348.781 -255.857)" fill="#e1e1e1" fill-rule="evenodd"/>
        <path id="Trazado_899717" data-name="Trazado 899717" d="M210.613,468.3a2.289,2.289,0,0,1,.4.035,2.166,2.166,0,0,1,1.019,1.8v2.577H208.2V470.5A2.327,2.327,0,0,1,210.613,468.3Z" transform="translate(-186.684 -414.157)" fill="#008cca" fill-rule="evenodd"/>
        <path id="Trazado_899718" data-name="Trazado 899718" d="M28.131,354.27a5.747,5.747,0,0,0-3.631,5.481v7.016a2.859,2.859,0,0,0,2.776,2.916h2.366V362.5a5.747,5.747,0,0,1,3.631-5.481l1.722-.668V351.6Z" transform="translate(-24.5 -311.125)" fill="#3f383e" fill-rule="evenodd"/>
        <path id="Trazado_899719" data-name="Trazado 899719" d="M114,337.562v4.755l4.814-1.874V335.7a.491.491,0,0,0-.117.047Z" transform="translate(-103.517 -297.088)" fill="#ffaa5a" fill-rule="evenodd"/>
        <path id="Trazado_899720" data-name="Trazado 899720" d="M148.935,114.587V109h-3.01a.927.927,0,0,0-.925.925v8.421a.927.927,0,0,0,.925.925h3.092a11.616,11.616,0,0,1-.082-1.441v-3.244Z" transform="translate(-130.887 -96.94)" fill="#007eb6" fill-rule="evenodd"/>
        <path id="Trazado_899721" data-name="Trazado 899721" d="M118.641,64.062h3.01V58.1H116.1a2.009,2.009,0,0,0-2,2V71.745a23.791,23.791,0,0,0,.082,2.588,12.475,12.475,0,0,0,5.6,9,12.319,12.319,0,0,0,6.758,2.015,12.517,12.517,0,0,0,3.771-.586,12.511,12.511,0,0,1-8.585-10.412h-3.092a.927.927,0,0,1-.925-.925V65A.94.94,0,0,1,118.641,64.062Z" transform="translate(-103.602 -52.001)" fill="#c24441" fill-rule="evenodd"/>
      </g>
      <path id="Trazado_899722" data-name="Trazado 899722" d="M243.422,112.514l-3.9,6.758H236.5L242.426,109h.07a.927.927,0,0,1,.925.925Z" transform="translate(-194.851 -96.322)" fill="#7ecefd"/>
      <path id="Trazado_899723" data-name="Trazado 899723" d="M201.248,109l-5.926,10.272H192.3L198.226,109Z" transform="translate(-155.828 -96.322)" fill="#7ecefd"/>
      <path id="Trazado_899724" data-name="Trazado 899724" d="M37.679,59.879H19.349a3.461,3.461,0,0,1-2.518-1.1A3.8,3.8,0,0,1,15.8,56.166V52.7a.7.7,0,1,1,1.405,0v3.467a2.372,2.372,0,0,0,.644,1.64,2.071,2.071,0,0,0,1.511.656h5.915V52.125a3.189,3.189,0,0,1,.586-1.851,3.464,3.464,0,0,1,1.078-.984V41.444L20.485,43.95a5.178,5.178,0,0,0-2.2,1.651,5.36,5.36,0,0,0-1.042,2.624.7.7,0,1,1-1.394-.176,6.7,6.7,0,0,1,1.323-3.3,6.353,6.353,0,0,1,2.811-2.108l11.888-4.626a6.365,6.365,0,0,1,.668-.223l.035-.012.047-.012V32.273A12.629,12.629,0,0,1,30.8,30.75a13.159,13.159,0,0,1-3.689-7.145H25.357a3.051,3.051,0,0,1-.785-6V6.576a3.519,3.519,0,0,1,3.5-3.5h.914a3.6,3.6,0,0,1,1.066-1.523A3.538,3.538,0,0,1,32.326.72c1.206,0,2.612.035,4.017.059,4.568.094,9.218.2,13.434-.843a1.431,1.431,0,0,1,.3-.035,1.308,1.308,0,0,1,1.253.984,1.454,1.454,0,0,1,.035.316V3.074h.7a3.519,3.519,0,0,1,3.5,3.5v11.08a3.092,3.092,0,0,1,1.382.8,3.045,3.045,0,0,1-2.155,5.2H53.045A13.122,13.122,0,0,1,49.356,30.8,14.048,14.048,0,0,1,47.54,32.32v5.493c.023.012.059.012.082.023l.035.012q.316.088.632.211l11.888,4.626a3.51,3.51,0,0,1,.48.211V37.344a2.566,2.566,0,0,1-.539-.4,2.272,2.272,0,0,1,1.6-3.877h.621V28.045a.7.7,0,0,1,.7-.7h2.483a2.359,2.359,0,0,1,.527-.96c.082-.082.164-.176.258-.258a3.09,3.09,0,0,1,3.994-.012l1.534,1.347a.7.7,0,0,1,.07.984l-.07.07-1.558,1.335a2.945,2.945,0,0,1-1.979.714,3.046,3.046,0,0,1-1.991-.726,2.676,2.676,0,0,1-.258-.258,2.62,2.62,0,0,1-.492-.855H63.739v4.334h.621a2.27,2.27,0,0,1,1.066,4.275V48.3a2.958,2.958,0,0,1,.984.656,3.019,3.019,0,0,1,.878,2.132V53.25a3.02,3.02,0,0,1-2.952,3.022,3.794,3.794,0,0,1-1.031,2.518,3.488,3.488,0,0,1-2.53,1.1h-23.1ZM26.657,58.473H36.964v-2.19l.012-.035v-.035l.012-.035L37,56.143l.012-.035.012-.035.012-.035A.043.043,0,0,1,37.046,56l.012-.035.012-.035c0-.012.012-.023.012-.035l.012-.035.012-.035.012-.035c0-.012.012-.023.012-.035a.043.043,0,0,0,.012-.035c0-.012.012-.023.012-.035l.012-.035.012-.035.012-.035.012-.035.012-.035.012-.035.012-.035.012-.035.012-.035.012-.035.012-.035.023-.035.012-.035.012-.035.023-.035.023-.035.023-.035.023-.035.023-.035.023-.035.023-.035c.012-.012.012-.023.023-.035l.023-.023.023-.035.023-.035.023-.023.023-.035.023-.023.023-.023.023-.035.023-.023.023-.023.023-.023.023-.023.023-.023.023-.023.023-.023.023-.023.023-.023.023-.023c.012-.012.023-.012.035-.023l.023-.023.023-.023.035-.023.023-.023.035-.023.023-.023.035-.023.035-.023.035-.023.035-.023.035-.023.035-.023.035-.023.035-.023.035-.012.035-.023.035-.012.035-.012.035-.023L38.627,54l.035-.012.035-.012.035-.012.035-.012.035-.012.035-.012.035-.012.035-.012.035-.012.035-.012.035-.012.035-.012.035-.012.035-.012.035-.012.035-.012.035-.012.035-.012.035-.012.035-.012.035-.012.035-.012.035-.012.035-.012.035-.012.035-.012.035-.012a.043.043,0,0,0,.035-.012h.035l.035-.012h.035l.035-.012h.387a3.294,3.294,0,0,1,2.1.832h.012l.012.012a2.777,2.777,0,0,1,.925,2.026v1.909h10.3V52.09a1.825,1.825,0,0,0-.258-.949V51.2a3.115,3.115,0,0,1-6.231,0v-.949H33.146V51.2a3.115,3.115,0,0,1-6.231,0v-.059a1.865,1.865,0,0,0-.269.949v6.383Zm28.238,0h5.9a2.117,2.117,0,0,0,1.511-.656,2.406,2.406,0,0,0,.644-1.546H60.307a1.52,1.52,0,0,1-1.523-1.523V49.607a1.5,1.5,0,0,1,.445-1.078.256.256,0,0,1,.059-.047,1.526,1.526,0,0,1,1.031-.4h.351V44.512a3.051,3.051,0,0,0-.328-.2A6.756,6.756,0,0,0,59.686,44l-6.442-2.506v7.847a3.1,3.1,0,0,1,1.078.984,3.247,3.247,0,0,1,.586,1.851v6.3ZM47,48.9V41.362a7.462,7.462,0,0,1-13.844,0V48.9Zm-5.224,7.66a1.407,1.407,0,0,0-.468-1,1.867,1.867,0,0,0-1.183-.468h-.375l-.023.012h-.07l-.023.012h-.047l-.023.012-.023.012h-.023l-.023.012-.023.012-.023.012-.023.012-.023.012-.023.012-.023.012-.023.012-.023.012-.012.012-.023.012-.023.012-.023.012-.012.012-.023.012-.012.012-.023.012-.012.012-.023.012-.012.012-.023.012-.012.012-.012.012-.012.012-.023.012-.012.012L39,55.463l-.012.012-.012.012-.012.012-.012.012-.012.012-.012.012-.012.012-.012.012-.012.012-.012.012-.012.012-.012.012-.012.012-.012.012c-.012.012-.023.012-.023.023l-.012.012-.012.012c-.012.012-.012.023-.023.023l-.012.012-.012.012-.012.012-.023.023-.012.012-.012.012-.012.012-.012.012-.012.012c-.012.012-.012.023-.023.035l-.012.012c-.012.012-.012.023-.023.035l-.012.012-.012.012-.012.012-.012.012-.012.012-.012.012-.012.012-.012.012L38.487,56l-.012.012-.012.012-.012.012-.012.012-.012.012-.012.012L38.4,56.1l-.012.012-.012.012v.012l-.012.012-.012.023v.012l-.012.012V56.2l-.012.023V58.4h3.408V56.564ZM51.839,40.94,48.407,39.6V51.259a1.691,1.691,0,0,0,.5,1.206,1.74,1.74,0,0,0,1.206.5,1.691,1.691,0,0,0,1.206-.5,1.74,1.74,0,0,0,.5-1.206V41.092A.324.324,0,0,1,51.839,40.94ZM31.74,39.6,28.309,40.94a.72.72,0,0,1,.012.164V51.27a1.691,1.691,0,0,0,.5,1.206,1.719,1.719,0,0,0,1.206.5,1.691,1.691,0,0,0,1.206-.5,1.74,1.74,0,0,0,.5-1.206Zm31.9,15.249h.644a1.6,1.6,0,0,0,1.136-.48,1.624,1.624,0,0,0,.48-1.136V51.071a1.6,1.6,0,0,0-.48-1.136,1.658,1.658,0,0,0-.82-.445c-.012,0-.012,0-.023-.012a2.281,2.281,0,0,0-.293-.023H60.307a.166.166,0,0,0-.07.023l-.012.012a.127.127,0,0,0-.035.082v5.142a.106.106,0,0,0,.035.082.127.127,0,0,0,.082.035h3.338ZM49.4,50.614a.7.7,0,1,1,1.405,0v.012a.7.7,0,1,1-1.405,0Zm-20.063,0a.7.7,0,1,1,1.405,0v.012a.7.7,0,1,1-1.405,0ZM48.2,9.774a.7.7,0,1,1,1.405,0v.012a.7.7,0,1,1-1.405,0Zm-17.65,0a.7.7,0,1,1,1.405,0v.012a.7.7,0,1,1-1.405,0ZM46.03,26.206a.7.7,0,0,1,1.405,0V27.74a.7.7,0,0,1-1.405,0Zm-3.326,0a.7.7,0,0,1,1.405,0V27.74a.7.7,0,1,1-1.405,0Zm-3.326,0a.7.7,0,1,1,1.405,0V27.74a.7.7,0,1,1-1.405,0Zm-3.338,0a.7.7,0,1,1,1.405,0V27.74a.7.7,0,1,1-1.405,0Zm-3.326,0a.7.7,0,0,1,1.405,0V27.74a.7.7,0,1,1-1.405,0ZM64.031,37.59H62.064V48.061h1.968Zm.34-3.127H61.724a.88.88,0,0,0-.867.867.831.831,0,0,0,.258.609.84.84,0,0,0,.4.223c.012,0,.012,0,.023.012a.91.91,0,0,0,.187.023h2.647a.91.91,0,0,0,.187-.023c.012,0,.012,0,.023-.012a.84.84,0,0,0,.4-.223.9.9,0,0,0,.258-.609.831.831,0,0,0-.258-.609A.851.851,0,0,0,64.371,34.463Zm-32.2-22.488h15.8A1.64,1.64,0,0,1,49.6,13.6v8.421a1.64,1.64,0,0,1-1.628,1.628h-15.8a1.64,1.64,0,0,1-1.628-1.628V13.6a1.63,1.63,0,0,1,.48-1.148A1.583,1.583,0,0,1,32.174,11.975Zm15.8,1.405h-15.8a.223.223,0,0,0-.152.059.232.232,0,0,0-.07.152v8.421a.189.189,0,0,0,.07.152.223.223,0,0,0,.152.059h15.8a.2.2,0,0,0,.211-.211V13.592a.2.2,0,0,0-.211-.211ZM40.08,7.419a.7.7,0,0,1,0-1.405H50.515a2.7,2.7,0,0,1,2.694,2.706v8.843h.949V6.576a2.079,2.079,0,0,0-2.085-2.085H50.668a.7.7,0,0,1-.7-.7V1.341c-4.357,1.042-9.042.949-13.657.843-1.277-.023-2.553-.047-3.994-.047a2.16,2.16,0,0,0-2.108,1.769.693.693,0,0,1-.691.574H28.063a2.09,2.09,0,0,0-1.476.609,2.042,2.042,0,0,0-.609,1.476V17.551h.949V8.708A2.719,2.719,0,0,1,29.632,6h5.915a.7.7,0,1,1,0,1.405H29.632A1.28,1.28,0,0,0,28.344,8.7v12.79a12.359,12.359,0,0,0,.07,1.323c0,.023.012.047.012.07a11.72,11.72,0,0,0,3.361,6.9,11.866,11.866,0,0,0,1.886,1.534c.012.012.035.023.047.035a11.668,11.668,0,0,0,12.72,0c.012-.012.035-.023.047-.035a11.865,11.865,0,0,0,1.886-1.534,11.72,11.72,0,0,0,3.361-6.9.149.149,0,0,1,.012-.07,12.36,12.36,0,0,0,.07-1.323V8.708a1.256,1.256,0,0,0-.386-.914,1.293,1.293,0,0,0-.914-.375ZM53.221,18.968v2.542c0,.246-.012.492-.023.738h1.6a1.68,1.68,0,0,0,1.16-.48,1.59,1.59,0,0,0,.48-1.16,1.641,1.641,0,0,0-1.593-1.64H53.221Zm-7.086,14.2a13.069,13.069,0,0,1-12.111,0v5.423a6.055,6.055,0,0,0,12.111,0ZM26.95,22.247c-.012-.246-.023-.492-.023-.738V18.968h-1.64a1.642,1.642,0,0,0-1.569,1.64,1.68,1.68,0,0,0,.48,1.16,1.59,1.59,0,0,0,1.16.48Zm42.422,6.547.949-.832-.925-.808a1.614,1.614,0,0,0-1.066-.387,1.6,1.6,0,0,0-1.078.4,1.1,1.1,0,0,0-.117.117.991.991,0,0,0,.012,1.37l.117.117a1.614,1.614,0,0,0,1.066.387A1.574,1.574,0,0,0,69.372,28.794Z"/>
    </g>
  </g>
</svg>
